<?xml version="1.0" encoding="utf-8"?>
<!-- Generator: Adobe Illustrator 16.2.0, SVG Export Plug-In . SVG Version: 6.00 Build 0)  -->
<!DOCTYPE svg PUBLIC "-//W3C//DTD SVG 1.1//EN" "http://www.w3.org/Graphics/SVG/1.1/DTD/svg11.dtd">
<svg version="1.1" id="Layer_1" xmlns="http://www.w3.org/2000/svg" xmlns:xlink="http://www.w3.org/1999/xlink" x="0px" y="0px"
	 width="100px" height="150px" viewBox="0 0 100 150" enable-background="new 0 0 100 150" xml:space="preserve">
<g>
	<path d="M50.06,114.72c-7.761,0-13.8-3.438-18.12-10.32c-4.319-6.879-6.479-16.758-6.479-29.64c0-12.879,2.16-22.68,6.479-29.4
		c4.32-6.72,10.359-10.08,18.12-10.08c7.681,0,13.681,3.36,18.001,10.08c4.318,6.72,6.479,16.521,6.479,29.4
		c0,12.882-2.16,22.761-6.479,29.64C63.738,111.281,57.738,114.72,50.06,114.72z M50.06,106.799c2.239,0,4.261-0.618,6.062-1.858
		c1.799-1.24,3.359-3.16,4.68-5.76c1.32-2.601,2.34-5.921,3.061-9.961c0.721-4.039,1.08-8.859,1.08-14.46
		c0-5.599-0.359-10.399-1.08-14.4c-0.721-4-1.74-7.26-3.061-9.78s-2.881-4.381-4.682-5.581s-3.82-1.8-6.061-1.8s-4.28,0.6-6.12,1.8
		c-1.841,1.2-3.42,3.06-4.739,5.58c-1.32,2.52-2.34,5.781-3.061,9.78c-0.72,4.001-1.08,8.801-1.08,14.4
		c0,11.202,1.38,19.34,4.141,24.42C41.959,104.261,45.578,106.799,50.06,106.799z"/>
</g>
</svg>
