<?xml version="1.0" encoding="utf-8"?>
<!-- Generator: Adobe Illustrator 16.2.0, SVG Export Plug-In . SVG Version: 6.00 Build 0)  -->
<!DOCTYPE svg PUBLIC "-//W3C//DTD SVG 1.1//EN" "http://www.w3.org/Graphics/SVG/1.1/DTD/svg11.dtd">
<svg version="1.1" id="Layer_1" xmlns="http://www.w3.org/2000/svg" xmlns:xlink="http://www.w3.org/1999/xlink" x="0px" y="0px"
	 width="21.956px" height="21.934px" viewBox="0 0 21.956 21.934" enable-background="new 0 0 21.956 21.934" xml:space="preserve">
<path fill-rule="evenodd" clip-rule="evenodd" d="M17.547,2.052c-0.408-0.355-0.451-0.974-0.097-1.382s0.973-0.452,1.381-0.097
	c1.077,0.931,1.879,2.059,2.399,3.271c0.547,1.273,0.785,2.646,0.711,3.987c-0.064,1.166-0.367,2.329-0.889,3.396
	c-0.507,1.038-1.221,1.991-2.126,2.78c-0.407,0.355-1.027,0.314-1.384-0.094c-0.355-0.408-0.314-1.027,0.094-1.384
	c0.701-0.61,1.256-1.353,1.651-2.163c0.409-0.839,0.646-1.745,0.696-2.648c0.059-1.039-0.129-2.105-0.556-3.101
	C19.02,3.665,18.391,2.78,17.547,2.052L17.547,2.052z M11.029,5.272c1.069,0,1.935,0.866,1.935,1.936
	c0,0.785-0.467,1.461-1.139,1.764v12.629h-1.623V8.958C9.547,8.647,9.094,7.98,9.094,7.208C9.094,6.139,9.96,5.272,11.029,5.272
	L11.029,5.272z M4.408,2.052C4.816,1.696,4.859,1.078,4.505,0.67S3.532,0.218,3.124,0.573C2.046,1.504,1.245,2.632,0.725,3.845
	C0.178,5.118-0.061,6.49,0.013,7.832c0.065,1.166,0.367,2.329,0.889,3.396c0.506,1.038,1.221,1.991,2.125,2.78
	c0.408,0.355,1.027,0.314,1.384-0.094s0.315-1.027-0.093-1.384c-0.701-0.61-1.257-1.353-1.652-2.163
	C2.257,9.529,2.02,8.623,1.97,7.72C1.913,6.681,2.099,5.614,2.526,4.619C2.936,3.665,3.564,2.78,4.408,2.052L4.408,2.052z
	 M6.986,4.933C5.615,6.366,5.588,8.555,7.178,9.896c0.441,0.313,0.544,0.926,0.23,1.366c-0.313,0.441-0.925,0.544-1.366,0.23
	C3.305,9.451,3.263,5.761,5.696,3.46c0.407-0.356,1.025-0.315,1.381,0.092C7.434,3.958,7.393,4.577,6.986,4.933L6.986,4.933z
	 M14.969,4.933c1.371,1.434,1.397,3.622-0.192,4.964c-0.44,0.313-0.544,0.926-0.23,1.366c0.313,0.441,0.926,0.544,1.366,0.23
	c2.737-2.042,2.78-5.732,0.347-8.033c-0.407-0.356-1.026-0.315-1.382,0.092C14.522,3.958,14.563,4.577,14.969,4.933z"/>
</svg>
