<?xml version="1.0" encoding="utf-8"?>
<!-- Generator: Adobe Illustrator 16.2.0, SVG Export Plug-In . SVG Version: 6.00 Build 0)  -->
<!DOCTYPE svg PUBLIC "-//W3C//DTD SVG 1.1//EN" "http://www.w3.org/Graphics/SVG/1.1/DTD/svg11.dtd">
<svg version="1.1" id="Layer_1" xmlns="http://www.w3.org/2000/svg" xmlns:xlink="http://www.w3.org/1999/xlink" x="0px" y="0px"
	 width="100px" height="150px" viewBox="0 0 100 150" enable-background="new 0 0 100 150" xml:space="preserve">
<g enable-background="new    ">
	<path d="M21.552,31.224h25.899c8.945,0,15.84,1.935,20.684,5.806c4.844,3.87,7.266,9.344,7.266,16.419
		c0,5.357-1.279,9.579-3.838,12.667c-2.559,3.089-6.396,5.024-11.514,5.806c5.742,0.86,10.244,3.313,13.506,7.36
		c3.262,4.046,4.893,9.197,4.893,15.451c0,7.938-2.598,13.928-7.793,17.975s-12.93,6.069-23.203,6.069H21.552V31.224z
		 M33.447,40.958v26.389h13.77c5.703,0,9.834-1.094,12.393-3.284c2.559-2.189,3.838-5.727,3.838-10.614
		c0-4.417-1.26-7.603-3.779-9.559c-2.52-1.954-6.67-2.932-12.451-2.932H33.447z M33.447,76.965v32.077h14.004
		c6.875,0,11.777-1.202,14.707-3.606s4.395-6.363,4.395-11.875c0-5.708-1.543-9.9-4.629-12.579
		c-3.086-2.677-7.91-4.017-14.473-4.017H33.447z"/>
</g>
</svg>
