<?xml version="1.0" encoding="utf-8"?>
<!-- Generator: Adobe Illustrator 16.2.0, SVG Export Plug-In . SVG Version: 6.00 Build 0)  -->
<!DOCTYPE svg PUBLIC "-//W3C//DTD SVG 1.1//EN" "http://www.w3.org/Graphics/SVG/1.1/DTD/svg11.dtd">
<svg version="1.1" id="Layer_1" xmlns="http://www.w3.org/2000/svg" xmlns:xlink="http://www.w3.org/1999/xlink" x="0px" y="0px"
	 width="33.445px" height="33.43px" viewBox="0 -9.821 33.445 33.43" enable-background="new 0 -9.821 33.445 33.43"
	 xml:space="preserve">
<path fill="#010101" d="M14.661,6.654c0.483-1.744,1.083-3.398,1.998-4.818c0.452-0.146,0.904-0.293,1.356-0.438
	c2.354-0.929,4.709-1.857,6.844-3.187c1.912-1.504,1.814-1.424,3.055-3.121c0.145,0.015,0.288,0.027,0.433,0.041
	c-0.168,1.853-0.06,1.574-1.282,3.137c-0.424,1.097-0.3,1.648-0.594,1.979c-0.4-0.078-0.802-0.154-1.201-0.23
	c-1.719,0.236-2.391,2.623-5.454,2.843c2.851,1.272,7.802,1.051,11.029,1.903c0.48-0.041,0.963-0.082,1.443-0.121
	c0.067,0.14,0.135,0.277,0.202,0.418c-1.567,0.746-2.84,0.828-3.951,1.804h4.906v2.696h-1.826l-1.436,8.324l-0.142,0.816h-0.824
	H7.705H7.462l-0.225-0.123c-1.607-0.875-3.017-2-4.058-3.588c-0.926-1.412-1.546-3.173-1.737-5.43H0V6.862h2.006
	C1.974,6.715,1.91,6.256,2.239,5.865c0.04-0.047,3.086-1.84,4.671-2.709C5.995,2.781,5.351,1.882,5.351,0.831
	c0-0.186,0.021-0.367,0.059-0.543C5.193,0.372,4.967,0.372,4.771,0.272C4.337,0.048,4.218-0.587,4.506-1.144
	c0.288-0.562,0.873-0.834,1.307-0.611c0.245,0.125,0.389,0.381,0.417,0.682C6.668-1.449,7.237-1.676,7.86-1.676
	c1.386,0,2.509,1.123,2.509,2.508c0,0.832-0.404,1.568-1.027,2.025c0.493,0.35,1.084,0.819,1.084,0.819s1.448,0.47,1.581,0.484
	c0.134,0.015,0.692,1.412,0.692,1.412l1.933,1.176L14.661,6.654L14.661,6.654z M29.613,9.673H3.416
	c0.188,1.769,0.684,3.145,1.402,4.243c0.799,1.219,1.886,2.111,3.134,2.822h20.443L29.613,9.673L29.613,9.673z M27.3,6.861
	l-0.628-0.765c0,0-2.268-0.147-3.051-0.026c-1.654,0.258-3.345-0.613-3.481-0.822c-0.229,0.053-0.364,0.539-0.418,0.77
	c-0.03,0.128-0.114,0.521-0.185,0.845L27.3,6.861L27.3,6.861z"/>
</svg>
