<?xml version="1.0" encoding="utf-8"?>
<!-- Generator: Adobe Illustrator 16.2.0, SVG Export Plug-In . SVG Version: 6.00 Build 0)  -->
<!DOCTYPE svg PUBLIC "-//W3C//DTD SVG 1.1//EN" "http://www.w3.org/Graphics/SVG/1.1/DTD/svg11.dtd">
<svg version="1.1" id="Layer_1" xmlns="http://www.w3.org/2000/svg" xmlns:xlink="http://www.w3.org/1999/xlink" x="0px" y="0px"
	 width="40.648px" height="40.637px" viewBox="0 0 40.648 40.637" enable-background="new 0 0 40.648 40.637" xml:space="preserve">
<path fill-rule="evenodd" clip-rule="evenodd" fill="#010101" d="M0,16.295h40.648v2.074h-2.562
	c0.087,3.951-0.47,7.783-1.621,11.508l1.781,4.047h-3.226l-1.552-3.525H10.992l-1.553,3.525H6.214l1.645-3.734
	c-3.265-3.541-4.938-7.557-5.786-11.82H0V16.295L0,16.295z M35.232,18.292c0.328,3.346,0.6,6.633,0.216,9.834
	c0.974-2.955,1.197-6.236,1.174-9.834C36.159,18.292,35.695,18.292,35.232,18.292L35.232,18.292z M2.757,13.684v1.789h9.852v-1.789
	H9.337v-0.875h0.752c0-0.49,0-0.98,0-1.473c-0.809-0.402-1.594-0.373-2.361,0c0,0.492,0,0.982,0,1.473h0.806v0.875H7.274V11.11
	c0.951-0.822,2.023-1.432,3.181-1.887c1.145-0.451,2.371-0.756,3.646-0.977l0.271,0.434l1.196-0.744l-0.52-0.83l-0.245-0.393
	l-0.46,0.07c-1.54,0.24-3.023,0.584-4.4,1.127c-1.407,0.555-2.707,1.313-3.85,2.367l-0.229,0.213v0.307v2.887H4.541v-0.875h0.751
	c0-0.49,0-0.98,0-1.473c-0.808-0.402-1.593-0.373-2.359,0c0,0.492,0,0.982,0,1.473h0.805v0.875H2.757z"/>
</svg>
