<?xml version="1.0" encoding="utf-8"?>
<!-- Generator: Adobe Illustrator 16.2.0, SVG Export Plug-In . SVG Version: 6.00 Build 0)  -->
<!DOCTYPE svg PUBLIC "-//W3C//DTD SVG 1.1//EN" "http://www.w3.org/Graphics/SVG/1.1/DTD/svg11.dtd">
<svg version="1.1" id="Layer_1" xmlns="http://www.w3.org/2000/svg" xmlns:xlink="http://www.w3.org/1999/xlink" x="0px" y="0px"
	 width="22.917px" height="22.921px" viewBox="-2.111 0 22.917 22.921" enable-background="new -2.111 0 22.917 22.921"
	 xml:space="preserve">
<path d="M3.101,4.937c-2.915,2.201-2.455,5.3-0.281,8.423c1.38,1.981,1.771,3.382,0.74,5.593l0.004,0.016
	c-0.349,0.617-0.431,1.152-0.188,1.552c0.425,0.701,1.682,0.713,3.371,0.166l0.049-0.017c0.108-0.588,0.404-1.074,0.896-1.414
	l-0.006-0.121c-0.458,0.193-0.89,0.355-1.288,0.484c-1.164,0.377-1.942,0.514-2.061,0.318s0.364-0.822,1.238-1.678
	c0.556-0.545,1.264-1.141,2.087-1.748l0.177-0.146c0.285-0.234,0.585-0.443,0.907-0.615c0.419-0.281,0.859-0.563,1.318-0.842
	c1.87-1.132,3.663-1.977,5.051-2.426c1.163-0.378,1.942-0.514,2.061-0.318c0.118,0.193-0.363,0.82-1.237,1.678
	c-1.042,1.021-2.62,2.219-4.49,3.351c-0.344,0.208-0.684,0.406-1.02,0.595l0.063,1.246c0.505-0.271,1.02-0.564,1.538-0.879
	c1.941-1.175,3.594-2.431,4.693-3.509c1.269-1.243,1.84-2.362,1.416-3.063c-0.271-0.45-0.887-0.616-1.736-0.534
	c-2.298-0.157-3.329-1.154-4.417-3.237c-1.671-3.203-4.039-5.028-7.101-3.865C4.72,2.347,3.65,0.288,2.073,0L0.436,1.056
	C-1.213,2.12,2.287,3.49,3.101,4.937L3.101,4.937z M9.82,19.695c0.565,0.275,1.026,0.723,1.026,1.527
	c0,0.804-0.761,1.697-1.698,1.697S7.45,22.042,7.45,21.222s0.355-1.307,0.965-1.563c-0.042-0.918-0.085-1.836-0.127-2.752
	c0.408-0.34,0.853-0.615,1.354-0.783C9.702,17.314,9.761,18.505,9.82,19.695L9.82,19.695z M0.792,1.452c0,0,0.968,0.349,1.521,1.032
	c0.555,0.683,0.87,1.771,0.912,1.831s-0.1,0.098-0.1,0.098c-0.693-1.122-2.255-1.99-2.415-2.398
	C0.576,1.667,0.792,1.452,0.792,1.452L0.792,1.452z M6.369,4.577c1.549,0.161,2.726,1.097,3.726,2.298
	c1.058,1.271,1.328,2.763,2.814,4.098c0,0-2.818-0.688-3.173-1.3C8.568,7.387,8.115,6.435,6.369,4.577z"/>
</svg>
