<?xml version="1.0" encoding="utf-8"?>
<!-- Generator: Adobe Illustrator 16.2.0, SVG Export Plug-In . SVG Version: 6.00 Build 0)  -->
<!DOCTYPE svg PUBLIC "-//W3C//DTD SVG 1.1//EN" "http://www.w3.org/Graphics/SVG/1.1/DTD/svg11.dtd">
<svg version="1.1" id="Layer_1" xmlns="http://www.w3.org/2000/svg" xmlns:xlink="http://www.w3.org/1999/xlink" x="0px" y="0px"
	 width="29.618px" height="29.662px" viewBox="0 0 29.618 29.662" enable-background="new 0 0 29.618 29.662" xml:space="preserve">
<path fill="#010101" d="M1.566,13.852c7.307-2.264,14.501-2.182,21.597,0c0,4.553,0,9.104,0,13.656H21.46l-0.566,2.154h-2.262
	v-2.154H5.92v2.154H3.657l-0.564-2.154H1.566C1.566,22.955,1.566,18.403,1.566,13.852L1.566,13.852z M13.905,2.781
	c0.479-0.301,0.334-0.617,0.184-0.949C13.835,1.279,13.573,0.707,14.081,0l0.799,0.568c-0.18,0.248-0.037,0.559,0.1,0.857
	c0.332,0.73,0.65,1.428-0.551,2.184L13.905,2.781L13.905,2.781z M11.955,2.781l0.521,0.828c1.201-0.756,0.883-1.453,0.55-2.184
	c-0.137-0.299-0.276-0.609-0.1-0.857L12.129,0c-0.507,0.707-0.245,1.279,0.007,1.832C12.287,2.164,12.431,2.48,11.955,2.781
	L11.955,2.781z M9.92,2.781c0.477-0.301,0.333-0.617,0.181-0.949C9.848,1.279,9.587,0.707,10.094,0l0.798,0.568
	c-0.179,0.248-0.037,0.559,0.1,0.857c0.333,0.73,0.651,1.428-0.55,2.184L9.92,2.781L9.92,2.781z M17.532,9.305v2.08
	c-3.475-0.506-6.976-0.498-10.502,0.049V9.295C5.86,9.182,4.937,8.19,4.937,6.992l0,0c0-1.273,1.07-2.045,2.314-2.314
	c3.362-0.729,6.763-0.775,10.207,0c1.24,0.279,2.313,1.041,2.313,2.314l0,0C19.772,8.238,18.77,9.264,17.532,9.305L17.532,9.305z
	 M9.045,8.613c-0.346,0-0.625,0.281-0.625,0.625c0,0.346,0.279,0.625,0.625,0.625S9.67,9.584,9.67,9.238
	C9.67,8.895,9.391,8.613,9.045,8.613L9.045,8.613z M14.962,5.736c-0.346,0-0.625,0.279-0.625,0.625c0,0.346,0.279,0.625,0.625,0.625
	s0.625-0.279,0.625-0.625C15.587,6.015,15.305,5.736,14.962,5.736L14.962,5.736z M16.411,6.828c-0.346,0-0.625,0.279-0.625,0.625
	c0,0.346,0.279,0.625,0.625,0.625c0.344,0,0.625-0.279,0.625-0.625C17.036,7.107,16.755,6.828,16.411,6.828L16.411,6.828z
	 M14.663,9.25c-0.346,0-0.625,0.279-0.625,0.625s0.279,0.625,0.625,0.625s0.627-0.279,0.627-0.625S15.009,9.25,14.663,9.25
	L14.663,9.25z M10.456,5.34c-0.347,0-0.626,0.279-0.626,0.625c0,0.344,0.279,0.625,0.626,0.625c0.345,0,0.625-0.281,0.625-0.625
	C11.081,5.619,10.8,5.34,10.456,5.34L10.456,5.34z M7.954,6.549c-0.346,0-0.625,0.281-0.625,0.627c0,0.344,0.279,0.625,0.625,0.625
	S8.58,7.52,8.58,7.176C8.58,6.83,8.299,6.549,7.954,6.549L7.954,6.549z M11.924,7.602c-0.422,0-0.766,0.342-0.766,0.764
	c0,0.422,0.344,0.764,0.766,0.764s0.764-0.342,0.764-0.764C12.688,7.944,12.346,7.602,11.924,7.602L11.924,7.602z M24.36,15.707
	h1.668h2.023l-0.24,0.899l-1.783,0.787v1.688H24.36V15.707L24.36,15.707z M4.257,22.953v1.825h16.197v-1.825H4.257L4.257,22.953z
	 M4.257,15.521v1.826h16.197v-1.826H4.257z"/>
</svg>
