<?xml version="1.0" encoding="utf-8"?>
<!-- Generator: Adobe Illustrator 16.2.0, SVG Export Plug-In . SVG Version: 6.00 Build 0)  -->
<!DOCTYPE svg PUBLIC "-//W3C//DTD SVG 1.1//EN" "http://www.w3.org/Graphics/SVG/1.1/DTD/svg11.dtd">
<svg version="1.1" id="Layer_1" xmlns="http://www.w3.org/2000/svg" xmlns:xlink="http://www.w3.org/1999/xlink" x="0px" y="0px"
	 width="46.443px" height="46.442px" viewBox="0 0 46.443 46.442" enable-background="new 0 0 46.443 46.442" xml:space="preserve">
<path fill="#030303" d="M45.612,39.484L29.35,23.222L45.612,6.959c1.107-1.106,1.107-2.902,0-4.009l-2.119-2.12
	c-1.107-1.106-2.902-1.106-4.009,0L23.221,17.093L6.959,0.831C5.852-0.276,4.057-0.276,2.95,0.83L0.83,2.95
	c-1.107,1.106-1.107,2.902,0,4.009l16.263,16.263L0.831,39.483c-1.107,1.107-1.107,2.902-0.001,4.01l2.12,2.119
	c1.106,1.107,2.902,1.107,4.009,0L23.221,29.35l16.262,16.263c1.107,1.107,2.902,1.107,4.01,0l2.119-2.119
	C46.719,42.386,46.719,40.591,45.612,39.484z"/>
</svg>
