<?xml version="1.0" encoding="utf-8"?>
<!-- Generator: Adobe Illustrator 16.2.0, SVG Export Plug-In . SVG Version: 6.00 Build 0)  -->
<!DOCTYPE svg PUBLIC "-//W3C//DTD SVG 1.1//EN" "http://www.w3.org/Graphics/SVG/1.1/DTD/svg11.dtd">
<svg version="1.1" id="Layer_1" xmlns="http://www.w3.org/2000/svg" xmlns:xlink="http://www.w3.org/1999/xlink" x="0px" y="0px"
	 width="29.475px" height="29.461px" viewBox="0 0 29.475 29.461" enable-background="new 0 0 29.475 29.461" xml:space="preserve">
<path fill="#010101" d="M7.269,0.924c4.816-1.309,9.704-1.154,14.639,0v14.787H7.269V0.924L7.269,0.924z M2.676,26.984
	c-0.731,0-1.329,0.558-1.329,1.238l0,0c0,0.683,0.598,1.238,1.329,1.238H26.8c0.729,0,1.328-0.557,1.328-1.238l0,0
	c0-0.682-0.599-1.238-1.328-1.238h-1.07V3.319h-2.721v13.574h-7.162v1.428h-0.833v2.085h2.755c0.013,0.315,0.016,0.633,0.009,0.948
	c0.14-0.037,0.286-0.059,0.438-0.059c0.938,0,1.7,0.762,1.7,1.703c0,0.939-0.762,1.701-1.7,1.701c-0.295,0-0.572-0.076-0.814-0.207
	c-0.073,0.336-0.156,0.672-0.249,1.006h1.229l-0.762,1.486h-5.715l-0.826-1.486h1.075c-0.508-1.633-0.794-3.342-0.662-5.094h2.882
	V18.32h-0.84v-1.428H6.167V3.319H3.267v23.666H2.676L2.676,26.984z M17.737,22.206c0.14-0.084,0.303-0.133,0.479-0.133
	c0.51,0,0.924,0.413,0.924,0.926c0,0.51-0.414,0.924-0.924,0.924c-0.257,0-0.486-0.104-0.654-0.271
	C17.64,23.172,17.7,22.689,17.737,22.206L17.737,22.206z M15.345,8.213c-2.056-0.709-4.069-0.275-4.499,0.969
	c-0.429,1.244,0.89,2.826,2.945,3.535c2.056,0.709,4.07,0.275,4.499-0.969c0.021-0.059,0.037-0.119,0.049-0.18
	c-1.725,0.496-2.843,0.289-3.876-0.607c-0.946-0.816-2.08-1.811-3.29-1.156l-0.029-0.232c1.566-0.85,2.739-0.447,3.821,0.488
	c0.939,0.814,1.941,1.682,3.403,1.289C18.437,10.184,17.187,8.848,15.345,8.213z"/>
</svg>
