<?xml version="1.0" encoding="utf-8"?>
<!-- Generator: Adobe Illustrator 16.2.0, SVG Export Plug-In . SVG Version: 6.00 Build 0)  -->
<!DOCTYPE svg PUBLIC "-//W3C//DTD SVG 1.1//EN" "http://www.w3.org/Graphics/SVG/1.1/DTD/svg11.dtd">
<svg version="1.1" id="Layer_1" xmlns="http://www.w3.org/2000/svg" xmlns:xlink="http://www.w3.org/1999/xlink" x="0px" y="0px"
	 width="23.333px" height="23.811px" viewBox="0 0 23.333 23.811" enable-background="new 0 0 23.333 23.811" xml:space="preserve">
<path fill-rule="evenodd" clip-rule="evenodd" d="M10.515,5.595C10.17,4.681,9.477,3.898,8.516,3.462S6.509,3.023,5.595,3.368
	C4.68,3.712,3.897,4.406,3.462,5.367c-0.435,0.96-0.439,2.006-0.095,2.921c0.345,0.914,1.038,1.697,1.999,2.132
	c0.96,0.436,2.006,0.439,2.921,0.096c0.914-0.345,1.697-1.038,2.132-1.999C10.854,7.556,10.859,6.509,10.515,5.595L10.515,5.595z
	 M10.165,2.143c0.318,0.214,0.611,0.456,0.875,0.721l0.991-0.556c0.469,0.382,0.793,0.832,0.971,1.353l-0.87,0.737
	c0.081,0.166,0.153,0.334,0.218,0.506c0.068,0.182,0.128,0.367,0.178,0.556l1.138,0.014c0.215,0.565,0.27,1.118,0.164,1.657
	l-1.121,0.203c-0.025,0.373-0.087,0.748-0.188,1.118l0.978,0.581c-0.097,0.597-0.325,1.103-0.687,1.516l-1.073-0.384
	c-0.213,0.319-0.456,0.611-0.721,0.875l0.556,0.991c-0.382,0.469-0.833,0.793-1.353,0.971l-0.738-0.87
	c-0.165,0.081-0.333,0.153-0.505,0.219c-0.182,0.068-0.368,0.128-0.556,0.178l-0.014,1.138c-0.565,0.215-1.118,0.27-1.657,0.164
	l-0.204-1.121c-0.373-0.025-0.747-0.087-1.118-0.188L4.85,13.499c-0.597-0.097-1.103-0.325-1.517-0.687l0.384-1.072
	c-0.319-0.214-0.611-0.456-0.875-0.721l-0.991,0.556c-0.469-0.382-0.792-0.833-0.97-1.353l0.87-0.738
	C1.67,9.32,1.597,9.15,1.532,8.978C1.464,8.796,1.404,8.611,1.354,8.423L0.216,8.409c-0.215-0.565-0.27-1.117-0.163-1.656
	l1.12-0.204C1.198,6.175,1.26,5.801,1.361,5.431L0.383,4.85C0.479,4.253,0.708,3.748,1.07,3.333l1.073,0.384
	c0.214-0.318,0.455-0.61,0.721-0.875L2.307,1.851C2.689,1.382,3.14,1.059,3.66,0.881l0.737,0.87C4.563,1.67,4.731,1.597,4.903,1.533
	c0.182-0.068,0.367-0.128,0.556-0.178l0.014-1.139c0.565-0.215,1.117-0.27,1.656-0.164l0.204,1.121
	c0.374,0.025,0.748,0.088,1.118,0.188l0.581-0.978c0.597,0.096,1.103,0.324,1.517,0.686L10.165,2.143L10.165,2.143z M19.966,15.525
	c-0.345-0.915-1.038-1.698-1.998-2.133c-0.961-0.436-2.008-0.439-2.922-0.096c-0.914,0.345-1.697,1.038-2.133,1.999
	c-0.435,0.961-0.439,2.007-0.095,2.921c0.345,0.915,1.038,1.697,1.999,2.133s2.007,0.439,2.921,0.095
	c0.915-0.345,1.698-1.038,2.133-1.999C20.306,17.485,20.311,16.439,19.966,15.525L19.966,15.525z M19.616,12.072
	c0.318,0.214,0.61,0.456,0.875,0.721l0.99-0.556c0.469,0.382,0.793,0.833,0.971,1.354l-0.869,0.737
	c0.08,0.165,0.153,0.334,0.218,0.506c0.068,0.182,0.128,0.367,0.178,0.555l1.139,0.015c0.215,0.565,0.27,1.117,0.163,1.656
	l-1.12,0.204c-0.025,0.373-0.088,0.748-0.188,1.117l0.979,0.581c-0.097,0.598-0.326,1.103-0.688,1.517l-1.072-0.384
	c-0.214,0.318-0.455,0.61-0.721,0.875l0.556,0.991c-0.382,0.469-0.833,0.792-1.353,0.97l-0.738-0.87
	c-0.164,0.082-0.333,0.154-0.505,0.219c-0.183,0.068-0.368,0.128-0.556,0.178l-0.014,1.139c-0.565,0.215-1.118,0.27-1.657,0.164
	l-0.204-1.121c-0.373-0.025-0.747-0.088-1.117-0.188l-0.581,0.978c-0.597-0.097-1.103-0.325-1.517-0.687l0.385-1.073
	c-0.319-0.214-0.611-0.456-0.875-0.721l-0.991,0.556c-0.469-0.382-0.792-0.832-0.97-1.353l0.87-0.737
	c-0.081-0.165-0.154-0.334-0.218-0.506c-0.069-0.182-0.128-0.367-0.178-0.556l-1.138-0.014c-0.215-0.565-0.27-1.118-0.164-1.657
	l1.121-0.203c0.025-0.373,0.087-0.748,0.188-1.118l-0.978-0.581c0.096-0.597,0.325-1.102,0.687-1.516l1.073,0.384
	c0.213-0.319,0.456-0.611,0.721-0.875l-0.556-0.991c0.382-0.469,0.833-0.793,1.354-0.97l0.737,0.869
	c0.165-0.081,0.333-0.153,0.505-0.219c0.183-0.068,0.368-0.128,0.556-0.177l0.015-1.139c0.564-0.215,1.117-0.27,1.656-0.164
	l0.203,1.121c0.374,0.025,0.748,0.087,1.118,0.188l0.581-0.978C19.081,10.41,19.586,10.638,20,11L19.616,12.072z"/>
</svg>
