<?xml version="1.0" encoding="utf-8"?>
<!-- Generator: Adobe Illustrator 16.2.0, SVG Export Plug-In . SVG Version: 6.00 Build 0)  -->
<!DOCTYPE svg PUBLIC "-//W3C//DTD SVG 1.1//EN" "http://www.w3.org/Graphics/SVG/1.1/DTD/svg11.dtd">
<svg version="1.1" id="Layer_1" xmlns="http://www.w3.org/2000/svg" xmlns:xlink="http://www.w3.org/1999/xlink" x="0px" y="0px"
	 width="31.426px" height="31.488px" viewBox="0 0 31.426 31.488" enable-background="new 0 0 31.426 31.488" xml:space="preserve">
<path fill="#010101" d="M1.621,11.279l0.111-1.594l4.109,0.288L5.73,11.567L1.621,11.279L1.621,11.279z M19.642,8.064
	c1.074,0.582,1.93,1.283,1.813,2.522c-0.379,3.354-2.231,5.832-3.349,8.746c-0.604,0-1.209,0-1.813,0
	C17.144,16.775,19.778,10.439,19.642,8.064L19.642,8.064z M20.456,25.65l-0.982-0.103v-0.975h0.982v-1.967h-9.219v1.967h0.984v0.219
	l-0.983-0.104v1.967l0.983,0.104v2.609h1.694c-0.003,0.041-0.004,0.08-0.004,0.123c0,1.102,0.896,1.996,1.997,1.996
	c1.104,0,1.998-0.896,1.998-1.996c0-0.043-0.002-0.082-0.004-0.123h1.569v-1.854l0.982,0.102L20.456,25.65L20.456,25.65z
	 M19.165,21.563c1.411-4.541,11.165-16.299-3.317-16.406c-14.618-0.109-5.053,11.746-3.604,16.406
	C14.395,21.563,17.013,21.563,19.165,21.563L19.165,21.563z M29.804,11.279l-4.107,0.287l-0.111-1.594l4.107-0.287L29.804,11.279
	L29.804,11.279z M25.233,1.744l-2.105,3.539l-1.373-0.816l2.105-3.539L25.233,1.744L25.233,1.744z M16.88,0h-1.598v4.117h1.598V0
	L16.88,0z M6.191,1.744l1.373-0.816l2.104,3.539L8.297,5.283L6.191,1.744z"/>
</svg>
