<?xml version="1.0" encoding="utf-8"?>
<!-- Generator: Adobe Illustrator 16.2.0, SVG Export Plug-In . SVG Version: 6.00 Build 0)  -->
<!DOCTYPE svg PUBLIC "-//W3C//DTD SVG 1.1//EN" "http://www.w3.org/Graphics/SVG/1.1/DTD/svg11.dtd">
<svg version="1.1" id="Layer_1" xmlns="http://www.w3.org/2000/svg" xmlns:xlink="http://www.w3.org/1999/xlink" x="0px" y="0px"
	 width="16.905px" height="16.859px" viewBox="0 0 16.905 16.859" enable-background="new 0 0 16.905 16.859" xml:space="preserve">
<path fill-rule="evenodd" clip-rule="evenodd" d="M5.708,16.328C2.393,15.23,0,12.107,0,8.424c0-3.391,2.118-6.571,5.248-7.832
	C6.196,0.21,7.229,0,8.31,0c0.97,0,1.901,0.168,2.766,0.479c0.851,0.305,1.639,0.748,2.335,1.302l0.013-0.016l0.449,0.369
	c0.943,0.777,1.713,1.757,2.24,2.872c0.509,1.077,0.793,2.279,0.793,3.544c0,2.294-0.93,4.372-2.434,5.875
	C11.884,17.014,8.761,17.339,5.708,16.328L5.708,16.328z M4.923,1.7L3.875,2.961l0.408,0.425l1.804-2.17
	C5.912,1.271,5.741,1.333,5.572,1.401C5.351,1.49,5.134,1.59,4.923,1.7L4.923,1.7z M6.721,5.921l3.889-4.679
	c-0.201-0.066-0.406-0.125-0.616-0.174L6.313,5.497L6.721,5.921L6.721,5.921z M11.185,1.459L7.126,6.342l0.408,0.424l4.196-5.047
	C11.553,1.625,11.371,1.538,11.185,1.459L11.185,1.459z M5.908,5.076l3.434-4.129C9.109,0.913,8.874,0.892,8.635,0.881L5.5,4.651
	L5.908,5.076L5.908,5.076z M5.096,4.23l2.78-3.344C7.591,0.903,7.31,0.936,7.034,0.984L4.688,3.806L5.096,4.23L5.096,4.23z
	 M12.239,2.014L7.938,7.187l0.346,0.36l4.336-5.273C12.495,2.183,12.368,2.097,12.239,2.014L12.239,2.014z M15.061,5.502
	c-0.37-0.784-0.878-1.489-1.493-2.084L9.418,8.466c-0.081,0.637-0.243,1.909-0.422,3.324c-0.136,1.077-0.304,2.412-0.488,3.902
	l0.089,0.001c1.972,0,3.758-0.8,5.05-2.092c1.293-1.293,2.092-3.079,2.092-5.051C15.739,7.458,15.496,6.425,15.061,5.502z"/>
</svg>
