<?xml version="1.0" encoding="utf-8"?>
<!-- Generator: Adobe Illustrator 16.2.0, SVG Export Plug-In . SVG Version: 6.00 Build 0)  -->
<!DOCTYPE svg PUBLIC "-//W3C//DTD SVG 1.1//EN" "http://www.w3.org/Graphics/SVG/1.1/DTD/svg11.dtd">
<svg version="1.1" id="Layer_1" xmlns="http://www.w3.org/2000/svg" xmlns:xlink="http://www.w3.org/1999/xlink" x="0px" y="0px"
	 width="30.184px" height="30.197px" viewBox="0 -8.052 30.184 30.197" enable-background="new 0 -8.052 30.184 30.197"
	 xml:space="preserve">
<path fill="#010101" d="M0.971,0.443h21.417h0.971v0.971v12.164v0.972h-0.971H0.971H0v-0.972V1.412v-0.97H0.971L0.971,0.443z
	 M20.074,18.118h10.108V-4.026H20.074v3.012h2.897h1.844h4.063h0.461v0.461v2.736v0.461h-0.461h-4.063v0.84h4.063h0.461v0.461v2.736
	v0.461h-0.461h-4.063v8.863h-4.741V18.118L20.074,18.118z M27.338,8.488h1.869v1.057h-1.869V8.488L27.338,8.488z M27.338,10.236
	h1.869v1.057h-1.869V10.236L27.338,10.236z M24.815-0.093h3.602v1.814h-3.602V-0.093L24.815-0.093z M24.815,4.406h3.602V6.22h-3.602
	V4.406L24.815,4.406z M6.134,17.005h1.702v-1.802h7.495v1.802h1.511v1.112H6.134V17.005L6.134,17.005z M20.771,2.845H2.68v9.301
	h18.091V2.845z"/>
</svg>
