<?xml version="1.0" encoding="utf-8"?>
<!-- Generator: Adobe Illustrator 16.2.0, SVG Export Plug-In . SVG Version: 6.00 Build 0)  -->
<!DOCTYPE svg PUBLIC "-//W3C//DTD SVG 1.1//EN" "http://www.w3.org/Graphics/SVG/1.1/DTD/svg11.dtd">
<svg version="1.1" id="Layer_1" xmlns="http://www.w3.org/2000/svg" xmlns:xlink="http://www.w3.org/1999/xlink" x="0px" y="0px"
	 width="34.416px" height="34.423px" viewBox="0 -13.577 34.416 34.423" enable-background="new 0 -13.577 34.416 34.423"
	 xml:space="preserve">
<path fill="#010101" d="M30.713-6.789c2.045,0,3.703,2.037,3.703,4.553c0,1.871-0.92,3.479-2.231,4.18l0.537,11.511
	c-1.254,0.766-2.537,0.842-3.863,0l0.43-11.486c-1.338-0.688-2.277-2.312-2.277-4.203C27.01-4.752,28.668-6.789,30.713-6.789
	L30.713-6.789z M17.507-5.609c5.227,0,9.463,4.236,9.463,9.465c0,5.226-4.236,9.463-9.463,9.463c-5.227,0-9.463-4.237-9.463-9.463
	C8.044-1.373,12.281-5.609,17.507-5.609L17.507-5.609z M17.776-2.812c2.748,0.826,4.75,3.375,4.75,6.392
	c0,3.686-2.987,6.672-6.672,6.672c-0.09,0-0.179-0.002-0.269-0.006c0.608,0.184,1.253,0.282,1.921,0.282
	c3.685,0,6.673-2.987,6.673-6.672C24.181,0.26,21.336-2.67,17.776-2.812L17.776-2.812z M7.734-6.393v4.828
	c0,1.313-1.06,2.387-2.366,2.412l0.589,12.605c-1.253,0.766-2.537,0.842-3.863,0L2.565,0.85H2.414C1.086,0.85,0-0.236,0-1.564
	v-4.829h1.731v4.457h1.151v-4.457h1.865v4.457H5.9v-4.457H7.734z"/>
</svg>
