<?xml version="1.0" encoding="utf-8"?>
<!-- Generator: Adobe Illustrator 16.2.0, SVG Export Plug-In . SVG Version: 6.00 Build 0)  -->
<!DOCTYPE svg PUBLIC "-//W3C//DTD SVG 1.1//EN" "http://www.w3.org/Graphics/SVG/1.1/DTD/svg11.dtd">
<svg version="1.1" id="Layer_1" xmlns="http://www.w3.org/2000/svg" xmlns:xlink="http://www.w3.org/1999/xlink" x="0px" y="0px"
	 width="28.824px" height="28.813px" viewBox="0 0 28.824 28.813" enable-background="new 0 0 28.824 28.813" xml:space="preserve">
<path fill="#010101" d="M27.587,13.625V4.963V3.854h-1.108H2.149H1.042v1.109v8.662H0v8.501h2.101v2.832h2.736v-2.832h19.297v2.832
	h2.736v-2.832h1.954v-8.501H27.587z M25.371,13.625h-4.025c1.37-0.244,2.572-0.795,3.163-1.648
	c-3.144-1.879-6.348-2.096-9.636-0.055c0.535,0.887,1.724,1.455,3.102,1.703H10.73c1.37-0.244,2.572-0.795,3.163-1.648
	c-3.144-1.879-6.347-2.096-9.635-0.055c0.534,0.887,1.723,1.455,3.101,1.703H3.258V6.071h22.113V13.625z"/>
</svg>
