<?xml version="1.0" encoding="utf-8"?>
<!-- Generator: Adobe Illustrator 16.2.0, SVG Export Plug-In . SVG Version: 6.00 Build 0)  -->
<!DOCTYPE svg PUBLIC "-//W3C//DTD SVG 1.1//EN" "http://www.w3.org/Graphics/SVG/1.1/DTD/svg11.dtd">
<svg version="1.1" id="Layer_1" xmlns="http://www.w3.org/2000/svg" xmlns:xlink="http://www.w3.org/1999/xlink" x="0px" y="0px"
	 width="31.173px" height="30.955px" viewBox="0 0 31.173 30.955" enable-background="new 0 0 31.173 30.955" xml:space="preserve">
<path fill-rule="evenodd" clip-rule="evenodd" fill="#010101" d="M26.543,27.82h2.384l-0.527,3.135H27.07L26.543,27.82L26.543,27.82
	z M6.455,0h4.74v1.148L8.613,3.775h2.739v1.34H6.258V3.842l2.46-2.502H6.455V0L6.455,0z M1.484,3.965H5.1V4.84L3.131,6.842H5.22
	v1.021H1.334V6.893l1.877-1.906H1.484V3.965L1.484,3.965z M6.211,7.082H8.18v0.479L7.107,8.65h1.138v0.557H6.129V8.678l1.022-1.039
	h-0.94V7.082L6.211,7.082z M0.879,15.666h1.257v-3.715v-0.729L2.86,11.09c4.124-0.752,8.309-1.121,12.552-1.117
	c4.247,0.002,8.545,0.377,12.89,1.113l0.735,0.125v0.74v3.715h1.257h0.879v0.877v9.768v0.879h-0.879H0.879H0v-0.879v-9.768v-0.877
	H0.879L0.879,15.666z M3.894,15.666h2.531c-0.276-0.229-0.476-0.533-0.616-0.895c3.126-2.182,6.391-1.961,8.865-0.291
	c-0.262,0.482-0.588,0.881-0.986,1.186h3.892c-0.398-0.305-0.725-0.703-0.986-1.186c2.475-1.67,5.739-1.891,8.864,0.291
	c-0.14,0.361-0.338,0.666-0.615,0.895h2.438v-2.971c-4.014-0.643-7.971-0.971-11.867-0.973c-3.891-0.004-7.73,0.316-11.519,0.963
	V15.666L3.894,15.666z M29.415,17.424h-0.378H2.136H1.758v2.492h27.657V17.424L29.415,17.424z M2.331,27.82h2.384l-0.527,3.135
	H2.858L2.331,27.82z"/>
</svg>
