<?xml version="1.0" encoding="utf-8"?>
<!-- Generator: Adobe Illustrator 16.2.0, SVG Export Plug-In . SVG Version: 6.00 Build 0)  -->
<!DOCTYPE svg PUBLIC "-//W3C//DTD SVG 1.1//EN" "http://www.w3.org/Graphics/SVG/1.1/DTD/svg11.dtd">
<svg version="1.1" id="Layer_1" xmlns="http://www.w3.org/2000/svg" xmlns:xlink="http://www.w3.org/1999/xlink" x="0px" y="0px"
	 width="34.28px" height="34.254px" viewBox="0 0 34.28 34.254" enable-background="new 0 0 34.28 34.254" xml:space="preserve">
<path fill="#010101" d="M8.38,1.009c5.82-1.357,11.72-1.334,17.691,0v2.73H8.38V1.009L8.38,1.009z M26.071,5.062v15.543H10.448
	c0.107-0.073,0.209-0.157,0.301-0.25h-0.002c0.389-0.392,0.629-0.924,0.629-1.511v-6.481c0-0.586-0.24-1.119-0.629-1.51h0.002
	c-0.387-0.387-0.922-0.627-1.511-0.627H8.38V5.062H26.071L26.071,5.062z M8.38,19.392h0.857c0.149,0,0.286-0.062,0.387-0.162h0.003
	c0.098-0.099,0.158-0.233,0.158-0.386v-6.481c0-0.152-0.062-0.287-0.158-0.385H9.624c-0.101-0.1-0.236-0.162-0.387-0.162H8.38
	V19.392L8.38,19.392z M26.071,21.728v9.239h0.766v3.287H7.444v-3.287H8.38v-2.493h0.857c0.589,0,1.123-0.24,1.511-0.627
	c0.387-0.388,0.627-0.923,0.627-1.511v-3.242c0-0.52-0.188-0.995-0.496-1.366H26.071L26.071,21.728z M8.38,26.883h0.857
	c0.149,0,0.286-0.063,0.387-0.161c0.1-0.099,0.161-0.236,0.161-0.386v-3.242c0-0.146-0.063-0.284-0.161-0.385
	c-0.101-0.102-0.236-0.162-0.387-0.162H8.38V26.883z"/>
</svg>
