<?xml version="1.0" encoding="utf-8"?>
<!-- Generator: Adobe Illustrator 16.2.0, SVG Export Plug-In . SVG Version: 6.00 Build 0)  -->
<!DOCTYPE svg PUBLIC "-//W3C//DTD SVG 1.1//EN" "http://www.w3.org/Graphics/SVG/1.1/DTD/svg11.dtd">
<svg version="1.1" id="Layer_1" xmlns="http://www.w3.org/2000/svg" xmlns:xlink="http://www.w3.org/1999/xlink" x="0px" y="0px"
	 width="34.279px" height="34.254px" viewBox="0 0 34.279 34.254" enable-background="new 0 0 34.279 34.254" xml:space="preserve">
<path fill="#FFFFFF" d="M8.38,1.009c5.82-1.357,11.72-1.334,17.69,0v2.73H8.38V1.009L8.38,1.009z M26.071,5.062v15.543H10.448
	c0.106-0.073,0.209-0.157,0.301-0.25h-0.002c0.389-0.393,0.629-0.924,0.629-1.512v-6.481c0-0.586-0.24-1.119-0.629-1.51h0.002
	c-0.388-0.387-0.922-0.627-1.512-0.627H8.38V5.062H26.071L26.071,5.062z M8.38,19.393h0.856c0.149,0,0.286-0.063,0.388-0.162h0.003
	c0.098-0.1,0.158-0.233,0.158-0.387v-6.481c0-0.152-0.063-0.287-0.158-0.385H9.624c-0.102-0.1-0.236-0.162-0.388-0.162H8.38V19.393
	L8.38,19.393z M26.071,21.729v9.238h0.767v3.287H7.444v-3.287H8.38v-2.492h0.856c0.59,0,1.123-0.24,1.512-0.627
	c0.387-0.389,0.627-0.924,0.627-1.512v-3.242c0-0.52-0.188-0.994-0.496-1.365H26.071L26.071,21.729z M8.38,26.883h0.856
	c0.149,0,0.286-0.063,0.388-0.16c0.1-0.1,0.161-0.236,0.161-0.387v-3.242c0-0.146-0.063-0.283-0.161-0.385
	c-0.102-0.102-0.236-0.162-0.388-0.162H8.38V26.883z"/>
</svg>
