<?xml version="1.0" encoding="utf-8"?>
<!-- Generator: Adobe Illustrator 16.2.0, SVG Export Plug-In . SVG Version: 6.00 Build 0)  -->
<!DOCTYPE svg PUBLIC "-//W3C//DTD SVG 1.1//EN" "http://www.w3.org/Graphics/SVG/1.1/DTD/svg11.dtd">
<svg version="1.1" id="Layer_1" xmlns="http://www.w3.org/2000/svg" xmlns:xlink="http://www.w3.org/1999/xlink" x="0px" y="0px"
	 width="100px" height="150px" viewBox="0 0 100 150" enable-background="new 0 0 100 150" xml:space="preserve">
<g enable-background="new    ">
	<path d="M79.356,111.505c-3.164,2.933-6.729,5.151-10.693,6.655c-3.965,1.505-8.253,2.258-12.861,2.258
		c-11.096,0-19.728-3.977-25.899-11.934c-6.173-7.955-9.259-19.107-9.259-33.455c0-14.309,3.125-25.46,9.376-33.455
		c6.249-7.995,14.941-11.992,26.075-11.992c3.671,0,7.187,0.519,10.547,1.554c3.359,1.036,6.602,2.609,9.727,4.721v12.139
		c-3.164-3.01-6.406-5.228-9.727-6.655c-3.32-1.427-6.836-2.141-10.547-2.141c-7.696,0-13.469,2.981-17.315,8.942
		c-3.849,5.963-5.771,14.925-5.771,26.888c0,12.159,1.864,21.16,5.596,27.005c3.729,5.845,9.463,8.767,17.198,8.767
		c2.616,0,4.912-0.303,6.885-0.908c1.972-0.605,3.76-1.555,5.361-2.845V83.532H55.333v-9.734h24.023V111.505z"/>
</g>
</svg>
