<?xml version="1.0" encoding="utf-8"?>
<!-- Generator: Adobe Illustrator 16.2.0, SVG Export Plug-In . SVG Version: 6.00 Build 0)  -->
<!DOCTYPE svg PUBLIC "-//W3C//DTD SVG 1.1//EN" "http://www.w3.org/Graphics/SVG/1.1/DTD/svg11.dtd">
<svg version="1.1" id="Layer_1" xmlns="http://www.w3.org/2000/svg" xmlns:xlink="http://www.w3.org/1999/xlink" x="0px" y="0px"
	 width="54.314px" height="54.423px" viewBox="0 0 54.314 54.423" enable-background="new 0 0 54.314 54.423" xml:space="preserve">
<path fill="#030303" d="M33.359,54.423c2.524,0,5.058-0.074,7.598-0.271l1.064-0.083l0.27-1.034c0.085-0.381,0.076-0.52,0.106-0.853
	c0.021-0.303,0.04-0.662,0.062-1.032c0.021-0.4,0.046-0.831,0.071-1.172c2.061-1.113,3.078-3.219,3.576-5.198
	c0.583-2.277,0.638-4.667,0.749-6.329c0.076-1.309,0.905-7.585,0.907-13.057c-0.061-3.537-0.185-6.667-1.711-8.754
	c-0.526-0.701-1.464-1.277-2.485-1.258c-0.503,0-0.985,0.117-1.434,0.305c-0.107,0.044-0.21,0.092-0.309,0.143
	c-0.157-0.302-0.347-0.597-0.575-0.881c-0.947-1.151-2.331-1.835-3.805-1.844c-0.882-0.002-1.807,0.271-2.581,0.864
	c-0.345,0.27-0.638,0.566-0.888,0.882c-0.495-0.799-1.285-1.531-2.349-1.874c-0.593-0.198-1.174-0.303-1.737-0.303
	c-0.746-0.012-1.442,0.193-2.037,0.53c0.001-0.19,0.002-0.38,0.002-0.569c0-0.462-0.002-0.927-0.011-1.401
	c-0.013-0.653-0.007-2.255-0.159-3.992c-0.165-1.756-0.429-3.641-1.228-5.178C25.96,1.069,24.914-0.006,23.418,0
	c-0.877,0.003-1.683,0.344-2.451,0.871c-1.729,1.247-2.196,3.21-2.466,4.992c-0.246,1.803-0.201,3.615-0.237,4.682
	c-0.048,1.256-0.067,2.517-0.067,3.781c0,3.301,0.146,6.637,0.436,9.94c-1.525-1.677-3.421-3.054-5.772-3.698
	c-0.725-0.194-1.424-0.29-2.088-0.292c-1.049,0.004-2.034,0.235-2.853,0.818c-0.821,0.563-1.389,1.593-1.367,2.653
	c0.011,1.233,0.599,2.374,1.571,3.476c2.69,3.019,5.439,6.159,7.622,9.394c1.245,1.785,1.641,4.407,2.834,7.057
	c1.173,2.394,2.94,4.176,3.215,5.775c0.023,0.088,0.199,1.188,0.259,1.979v2.744h2.049C27.173,54.307,30.257,54.423,33.359,54.423z
	 M33.359,51.424c-2.759,0-5.532-0.094-8.313-0.211c-0.074-1.033-0.263-2.092-0.311-2.361c-0.666-2.858-2.705-4.726-3.433-6.44
	c-0.992-2.067-1.362-4.889-3.071-7.472c-2.331-3.452-5.167-6.678-7.865-9.712c-0.686-0.762-0.825-1.314-0.814-1.479
	c0.02-0.144-0.007-0.101,0.122-0.22c0.133-0.103,0.509-0.253,1.099-0.251c0.368,0,0.814,0.055,1.319,0.189
	c3.275,0.82,5.888,4.294,7.426,7.672l2.845-0.849c-0.775-5.21-1.167-10.639-1.167-15.964c0-1.232,0.02-2.458,0.065-3.674
	c0.036-1.215,0.004-2.889,0.213-4.38c0.183-1.515,0.705-2.655,1.193-2.929c0.457-0.316,0.71-0.349,0.751-0.345
	c0,0.007,0.062-0.076,0.39,0.475c0.281,0.517,0.542,1.443,0.699,2.46c0.33,2.052,0.321,4.414,0.337,5.354
	c0.009,0.444,0.011,0.893,0.009,1.348c0.002,3.596-0.241,7.248-0.246,10.991v0.007l2.999,0.006v-0.002
	c0.001-0.56,0.007-1.119,0.017-1.681c0.089-2.076,0.431-4.794,1.276-5.75c0.351-0.411,0.526-0.509,0.99-0.533
	c0.196,0.002,0.453,0.037,0.792,0.15c0.39,0.14,0.593,0.333,0.825,0.755c0.22,0.416,0.37,1.043,0.429,1.693
	c0.146,1.518,0.157,3.098,0.157,4.717v0.65l2.999,0.057c0.046-1.406,0.427-2.96,0.533-4.728c0.059-1.146,0.435-2.163,1.064-2.618
	c0.22-0.167,0.459-0.241,0.755-0.245c0.489-0.009,1.112,0.276,1.478,0.735c0.398,0.48,0.593,1.221,0.61,2.231
	c-0.278,1.156-0.304,2.316-0.306,3.301c0,0.448,0.011,0.855,0.011,1.182c0,0.063,0,0.081,0,0.081h3c0-0.063,0-0.081,0-0.081v-0.006
	c0.006-1.034,0.262-2.507,0.293-4.061c0.209-0.646,0.447-0.903,0.754-1.028c0.167-0.072,0.259-0.078,0.282-0.078h0.011
	c0.005,0.004,0.048,0.028,0.124,0.124c0.155,0.183,0.384,0.646,0.554,1.308c0.354,1.328,0.511,3.376,0.507,5.581
	c0,5.243-0.797,11.291-0.899,12.865c-0.11,1.738-0.185,3.95-0.659,5.771c-0.494,1.861-1.251,3.056-2.538,3.502l-0.008,0.004
	c-0.525,0.209-0.675,0.488-0.775,0.627c-0.096,0.155-0.128,0.248-0.156,0.327c-0.053,0.149-0.067,0.237-0.085,0.321
	c-0.03,0.166-0.046,0.31-0.063,0.478c-0.032,0.33-0.059,0.725-0.083,1.138c-0.015,0.27-0.03,0.556-0.046,0.822
	C37.425,51.373,35.396,51.424,33.359,51.424z"/>
</svg>
