<?xml version="1.0" encoding="utf-8"?>
<!-- Generator: Adobe Illustrator 16.2.0, SVG Export Plug-In . SVG Version: 6.00 Build 0)  -->
<!DOCTYPE svg PUBLIC "-//W3C//DTD SVG 1.1//EN" "http://www.w3.org/Graphics/SVG/1.1/DTD/svg11.dtd">
<svg version="1.1" id="Layer_1" xmlns="http://www.w3.org/2000/svg" xmlns:xlink="http://www.w3.org/1999/xlink" x="0px" y="0px"
	 width="30.032px" height="30.004px" viewBox="0 -5.496 30.032 30.004" enable-background="new 0 -5.496 30.032 30.004"
	 xml:space="preserve">
<path fill="#010101" d="M8.059,19.639h3.432v-0.545h8.796v0.545h3.494v2.121H8.059V19.639L8.059,19.639z M20.344-2.748h8.076
	c1.041,0,1.717,0.854,1.5,1.895l-1.31,6.281c-0.217,1.043-1.247,1.895-2.289,1.895h-8.075c-1.043,0-1.718-0.852-1.5-1.895
	l1.309-6.281C18.272-1.894,19.301-2.748,20.344-2.748L20.344-2.748z M22.655,5.453l1.535-6.699h-1.475l-0.611,2.67h-0.4l0.61-2.67
	H20.84l-1.535,6.699h1.474l0.737-3.217h0.4l-0.735,3.217H22.655L22.655,5.453z M22.94,5.453h1.846c0.435,0,0.822-0.117,1.166-0.348
	c0.346-0.234,0.565-0.557,0.661-0.975l0.929-4.055c0.104-0.449,0.023-0.783-0.237-0.998c-0.265-0.217-0.595-0.324-0.992-0.324
	h-1.835L22.94,5.453L22.94,5.453z M25.116,4.236l0.979-4.271c0.054-0.234-0.061-0.35-0.342-0.35l-1.141,4.977
	C24.893,4.592,25.06,4.475,25.116,4.236L25.116,4.236z M1.415-0.943H0v1.414v16.471v1.414h1.415h27.203h1.414v-1.414V3.701
	l-0.404,1.938c-0.254,1.217-1.239,2.24-2.426,2.592v7.296H2.83V1.885h13.594l0.591-2.828H1.415z"/>
</svg>
