<?xml version="1.0" encoding="utf-8"?>
<!-- Generator: Adobe Illustrator 16.2.0, SVG Export Plug-In . SVG Version: 6.00 Build 0)  -->
<!DOCTYPE svg PUBLIC "-//W3C//DTD SVG 1.1//EN" "http://www.w3.org/Graphics/SVG/1.1/DTD/svg11.dtd">
<svg version="1.1" id="Layer_1" xmlns="http://www.w3.org/2000/svg" xmlns:xlink="http://www.w3.org/1999/xlink" x="0px" y="0px"
	 width="25.727px" height="25.7px" viewBox="0 0 25.727 25.7" enable-background="new 0 0 25.727 25.7" xml:space="preserve">
<path fill-rule="evenodd" clip-rule="evenodd" d="M7.891,25.7c0.316-2.13,0.305-4.375-0.266-6.373
	c-8.936-5.03-6.043-16.104,1.473-18.446c3.943-1.575,8.783-1.177,12.289,2.328c2.545,2.545,1.319,3.205,1.319,3.205l-0.558,0.31
	c0.309,1.215,0.855,3.45,0.787,3.755c-0.094,0.422-0.564,0.844-0.564,0.844l1.271,4.272l-1.13,0.476
	c0.252,1.372,0.394,2.508,0.26,3.862c-0.023,0.237-0.788,0.908-1.408,0.947l-3.82,0.242l0.252,4.578H7.891L7.891,25.7z
	 M14.207,14.803c0-1.107,0.048-1.872,0.14-2.29c0.091-0.418,0.37-0.894,0.835-1.431c0.697-0.805,1.146-1.417,1.343-1.842
	c0.194-0.424,0.292-0.934,0.292-1.532V5.877c0-1.107-0.299-1.848-0.896-2.219c-0.598-0.37-1.434-0.558-2.512-0.558
	c-2.144,0-3.216,0.844-3.216,2.525v3.481h2.731V5.466c0-0.285,0.156-0.429,0.47-0.429c0.313,0,0.469,0.144,0.469,0.429v2.568
	c0,0.523-0.33,1.192-0.989,2.012c-0.751,0.935-1.189,1.645-1.315,2.134c-0.122,0.489-0.184,1.233-0.184,2.235v0.388H14.207
	L14.207,14.803z M14.207,17.473v-2.079h-2.834v2.079H14.207z"/>
</svg>
