<?xml version="1.0" encoding="utf-8"?>
<!-- Generator: Adobe Illustrator 16.2.0, SVG Export Plug-In . SVG Version: 6.00 Build 0)  -->
<!DOCTYPE svg PUBLIC "-//W3C//DTD SVG 1.1//EN" "http://www.w3.org/Graphics/SVG/1.1/DTD/svg11.dtd">
<svg version="1.1" id="Layer_1" xmlns="http://www.w3.org/2000/svg" xmlns:xlink="http://www.w3.org/1999/xlink" x="0px" y="0px"
	 width="54.5px" height="54.499px" viewBox="0 0 54.5 54.499" enable-background="new 0 0 54.5 54.499" xml:space="preserve">
<path fill="#030303" d="M27.25,0C12.2,0,0,12.2,0,27.25c0,15.048,12.2,27.247,27.25,27.249C42.3,54.497,54.498,42.298,54.5,27.25
	C54.498,12.2,42.3,0,27.25,0z M27.25,51.5C13.855,51.475,3.023,40.642,3,27.25C3.023,13.857,13.855,3.023,27.25,2.997
	C40.643,3.023,51.477,13.857,51.5,27.25C51.477,40.642,40.643,51.475,27.25,51.5z M26.577,11.012c-1.891,0-3.457,0.365-4.703,1.094
	c-1.246,0.73-1.869,1.699-1.869,2.906c0,0.855,0.262,1.543,0.785,2.059c0.525,0.516,1.224,0.773,2.097,0.773
	c0.889,0,1.626-0.27,2.214-0.809c0.588-0.541,0.881-1.189,0.881-1.951c0-0.271-0.08-0.637-0.238-1.098
	c-0.047-0.158-0.071-0.293-0.071-0.404c0-0.666,0.513-1,1.54-1c1.076,0,2.079,0.596,3.012,1.785c0.934,1.191,1.4,2.842,1.4,4.953
	s-0.432,3.865-1.293,5.262c-0.865,1.396-1.968,2.096-3.313,2.096s-2.89-0.754-4.632-2.262l0.166,9.975h1.905l0.002-0.019h0.954
	v-6.329c1.281,0.697,2.775,1.064,4.496,1.064c2.129,0,3.978-0.791,5.549-2.369c1.57-1.58,2.357-3.506,2.357-5.775
	c0-2.572-1.053-4.873-3.156-6.904C32.558,12.027,29.862,11.012,26.577,11.012z M23.981,36.846c-0.904,0-1.684,0.326-2.334,0.975
	c-0.65,0.65-0.975,1.43-0.975,2.334c0,0.922,0.324,1.707,0.975,2.357s1.43,0.977,2.334,0.977c0.92,0,1.707-0.326,2.356-0.977
	c0.651-0.65,0.977-1.436,0.977-2.357c0-0.904-0.325-1.684-0.977-2.334C25.688,37.172,24.901,36.846,23.981,36.846z"/>
</svg>
