<?xml version="1.0" encoding="utf-8"?>
<!-- Generator: Adobe Illustrator 16.2.0, SVG Export Plug-In . SVG Version: 6.00 Build 0)  -->
<!DOCTYPE svg PUBLIC "-//W3C//DTD SVG 1.1//EN" "http://www.w3.org/Graphics/SVG/1.1/DTD/svg11.dtd">
<svg version="1.1" id="Layer_1" xmlns="http://www.w3.org/2000/svg" xmlns:xlink="http://www.w3.org/1999/xlink" x="0px" y="0px"
	 width="25.727px" height="25.7px" viewBox="0 0 25.727 25.7" enable-background="new 0 0 25.727 25.7" xml:space="preserve">
<path fill="#FFFFFF" d="M7.891,25.7c0.316-2.13,0.305-4.375-0.266-6.373C-1.311,14.297,1.582,3.223,9.098,0.881
	c3.943-1.575,8.783-1.177,12.289,2.328c2.545,2.545,1.319,3.205,1.319,3.205l-0.559,0.31c0.31,1.215,0.855,3.45,0.787,3.755
	c-0.094,0.422-0.563,0.844-0.563,0.844l1.271,4.271l-1.13,0.477c0.252,1.372,0.394,2.508,0.26,3.862
	c-0.022,0.237-0.788,0.907-1.408,0.946l-3.819,0.242l0.252,4.578H7.891L7.891,25.7z M14.207,14.803c0-1.107,0.048-1.872,0.14-2.29
	c0.091-0.418,0.37-0.894,0.835-1.431c0.697-0.805,1.146-1.417,1.343-1.842c0.194-0.424,0.292-0.934,0.292-1.532V5.877
	c0-1.107-0.299-1.848-0.896-2.219C15.323,3.288,14.487,3.1,13.409,3.1c-2.145,0-3.217,0.844-3.217,2.525v3.481h2.731v-3.64
	c0-0.285,0.156-0.429,0.47-0.429s0.469,0.144,0.469,0.429v2.568c0,0.523-0.329,1.192-0.988,2.012
	c-0.751,0.935-1.189,1.645-1.315,2.134c-0.122,0.489-0.184,1.232-0.184,2.234v0.389H14.207L14.207,14.803z M14.207,17.473v-2.079
	h-2.834v2.079H14.207z"/>
</svg>
