<?xml version="1.0" encoding="utf-8"?>
<!-- Generator: Adobe Illustrator 16.2.0, SVG Export Plug-In . SVG Version: 6.00 Build 0)  -->
<!DOCTYPE svg PUBLIC "-//W3C//DTD SVG 1.1//EN" "http://www.w3.org/Graphics/SVG/1.1/DTD/svg11.dtd">
<svg version="1.1" id="Layer_1" xmlns="http://www.w3.org/2000/svg" xmlns:xlink="http://www.w3.org/1999/xlink" x="0px" y="0px"
	 width="35.771px" height="35.71px" viewBox="0 -16.29 35.771 35.71" enable-background="new 0 -16.29 35.771 35.71"
	 xml:space="preserve">
<path fill="#010101" d="M25.822-8.145h8.39c0.858,0,1.562,0.701,1.562,1.561v16.911h-0.773v0.463c0,0.268-0.221,0.484-0.487,0.484
	h-1.168c-0.268,0-0.487-0.219-0.487-0.484v-0.463h-5.793v0.463c0,0.268-0.219,0.484-0.485,0.484H25.41
	c-0.269,0-0.487-0.219-0.487-0.484v-0.463h-0.659V-6.584C24.261-7.444,24.963-8.145,25.822-8.145L25.822-8.145z M1.561-8.145h8.39
	c0.857,0,1.561,0.701,1.561,1.561v16.911h-0.774v0.463c0,0.268-0.219,0.484-0.486,0.484H9.082c-0.269,0-0.487-0.219-0.487-0.484
	v-0.463H2.802v0.463c0,0.268-0.219,0.484-0.487,0.484H1.147c-0.268,0-0.486-0.219-0.486-0.484v-0.463H0V-6.584
	C0-7.444,0.703-8.145,1.561-8.145L1.561-8.145z M5.756-6.25c-0.776,0-1.479,0.316-1.988,0.824c-0.509,0.51-0.824,1.213-0.824,1.988
	c0,0.777,0.315,1.479,0.824,1.988C4.277-0.942,4.98-0.625,5.756-0.625s1.479-0.316,1.988-0.824c0.509-0.51,0.822-1.211,0.822-1.988
	c0-0.775-0.313-1.479-0.822-1.988C7.236-5.934,6.533-6.25,5.756-6.25L5.756-6.25z M5.756,0.876c-0.749,0-1.447,0.221-2.031,0.602
	l-1.1-0.668C2.454,0.707,2.252,0.668,2.112,0.808l-0.521,0.52C1.45,1.468,1.477,1.677,1.59,1.841l0.793,1.146l0.006,0.01
	C2.155,3.485,2.024,4.03,2.024,4.608c0,0.551,0.12,1.076,0.335,1.547l-0.77,1.113C1.476,7.432,1.448,7.639,1.59,7.78l0.521,0.52
	c0.142,0.142,0.343,0.104,0.514,0L3.64,7.683c0.603,0.414,1.331,0.655,2.116,0.655c0.813,0,1.568-0.26,2.182-0.702l1.095,0.663
	c0.17,0.104,0.371,0.142,0.513,0l0.521-0.52c0.143-0.141,0.114-0.348,0-0.512L9.273,6.12c-0.02-0.029-0.045-0.053-0.073-0.07
	c0.187-0.442,0.288-0.932,0.288-1.44c0-0.545-0.116-1.063-0.326-1.528c0.044-0.021,0.083-0.05,0.111-0.093l0.793-1.146
	c0.113-0.164,0.142-0.373,0-0.514l-0.521-0.52C9.403,0.668,9.202,0.707,9.032,0.81L7.862,1.519L7.856,1.525
	C7.257,1.117,6.535,0.876,5.756,0.876L5.756,0.876z M5.756,3.243c-0.756,0-1.368,0.61-1.368,1.366S5,5.976,5.756,5.976
	c0.755,0,1.368-0.611,1.368-1.367S6.512,3.243,5.756,3.243L5.756,3.243z M7.943,2.42C7.383,1.862,6.61,1.517,5.756,1.517
	c-0.854,0-1.627,0.346-2.188,0.903C3.01,2.982,2.664,3.754,2.664,4.609S3.011,6.236,3.57,6.797C4.13,7.356,4.903,7.702,5.757,7.702
	c0.854,0,1.627-0.347,2.187-0.904C8.504,6.236,8.85,5.463,8.85,4.609S8.502,2.982,7.943,2.42L7.943,2.42z M5.756-4.438
	c-0.552,0-1,0.447-1,1c0,0.553,0.448,1,1,1s0.999-0.447,0.999-1C6.755-3.991,6.308-4.438,5.756-4.438L5.756-4.438z M7.292-4.975
	C6.9-5.368,6.356-5.612,5.756-5.612c-0.601,0-1.145,0.244-1.537,0.637C3.827-4.581,3.583-4.038,3.583-3.438s0.244,1.143,0.636,1.537
	c0.394,0.393,0.937,0.637,1.537,0.637c0.6,0,1.144-0.244,1.536-0.637c0.394-0.394,0.637-0.937,0.637-1.537S7.686-4.581,7.292-4.975
	L7.292-4.975z M13.724-8.145h8.389c0.859,0,1.562,0.701,1.562,1.561v16.911H22.9v0.463c0,0.268-0.219,0.484-0.485,0.484h-1.169
	c-0.269,0-0.487-0.219-0.487-0.484v-0.463h-5.792v0.463c0,0.268-0.22,0.484-0.487,0.484H13.31c-0.268,0-0.486-0.219-0.486-0.484
	v-0.463h-0.66V-6.584C12.163-7.444,12.865-8.145,13.724-8.145L13.724-8.145z M13.516-6.118v1.324h8.85v-1.324H13.516L13.516-6.118z
	 M15.762-4.489c0,0.213,0,0.426,0,0.639c0.386,0,0.771,0,1.157,0c0-0.213,0-0.426,0-0.639C16.533-4.489,16.148-4.489,15.762-4.489
	L15.762-4.489z M14.118-4.489v0.639h1.156v-0.639H14.118L14.118-4.489z M17.406-4.489c0,0.213,0,0.426,0,0.639
	c0.386,0,0.771,0,1.157,0c0-0.213,0-0.426,0-0.639C18.177-4.489,17.792-4.489,17.406-4.489L17.406-4.489z M19.05-4.489
	c0,0.213,0,0.426,0,0.639c0.386,0,0.771,0,1.157,0c0-0.213,0-0.426,0-0.639C19.822-4.489,19.436-4.489,19.05-4.489L19.05-4.489z
	 M20.694-4.489v0.639h1.157v-0.639H20.694L20.694-4.489z M15.398-2.61v3.1h5.069v-3.1H15.398L15.398-2.61z M14.351,4.038h-0.263
	v0.264v4.529v0.262l0.263,0.002h7.212l0.265-0.002V8.831V4.301V4.038h-0.265H14.351L14.351,4.038z M21.299,4.564h-6.686v4.002h6.686
	V4.564L21.299,4.564z M14.491,0.99c-0.636,0-1.15,0.516-1.15,1.15c0,0.634,0.515,1.149,1.15,1.149c0.635,0,1.148-0.516,1.148-1.149
	C15.64,1.506,15.125,0.99,14.491,0.99L14.491,0.99z M21.458,0.99c-0.635,0-1.149,0.516-1.149,1.15c0,0.634,0.516,1.149,1.149,1.149
	s1.148-0.516,1.148-1.149C22.607,1.506,22.093,0.99,21.458,0.99L21.458,0.99z M30.017-6.25c-0.775,0-1.479,0.316-1.988,0.824
	c-0.509,0.51-0.823,1.213-0.823,1.988c0,0.777,0.314,1.479,0.823,1.988c0.51,0.508,1.213,0.824,1.988,0.824s1.479-0.316,1.988-0.824
	c0.509-0.51,0.823-1.211,0.823-1.988c0-0.775-0.314-1.479-0.823-1.988C31.496-5.934,30.792-6.25,30.017-6.25L30.017-6.25z
	 M30.017,0.876c-0.749,0-1.446,0.221-2.031,0.602L26.885,0.81c-0.171-0.104-0.372-0.143-0.513-0.002l-0.521,0.52
	c-0.142,0.141-0.114,0.35-0.001,0.514l0.793,1.146l0.007,0.011c-0.233,0.487-0.364,1.032-0.364,1.61
	c0,0.552,0.119,1.076,0.335,1.547L25.85,7.269c-0.113,0.164-0.141,0.371,0.001,0.512l0.521,0.521c0.141,0.141,0.342,0.104,0.513,0
	l1.016-0.617c0.603,0.414,1.331,0.656,2.116,0.656c0.814,0,1.568-0.26,2.183-0.703l1.094,0.664c0.17,0.104,0.371,0.141,0.513,0
	l0.521-0.521c0.141-0.141,0.112-0.348,0-0.512l-0.793-1.147c-0.021-0.029-0.046-0.054-0.073-0.07
	C33.648,5.608,33.75,5.12,33.75,4.61c0-0.545-0.117-1.063-0.327-1.529c0.044-0.02,0.082-0.049,0.111-0.092l0.793-1.146
	c0.112-0.164,0.141-0.373,0-0.514l-0.521-0.52c-0.142-0.141-0.343-0.102-0.513,0.002l-1.17,0.709l-0.006,0.005
	C31.518,1.117,30.795,0.876,30.017,0.876L30.017,0.876z M30.017,3.243c-0.756,0-1.368,0.61-1.368,1.366s0.612,1.367,1.368,1.367
	s1.368-0.611,1.368-1.367S30.773,3.243,30.017,3.243L30.017,3.243z M32.204,2.42c-0.561-0.559-1.333-0.903-2.188-0.903
	c-0.854,0-1.627,0.346-2.188,0.903c-0.56,0.562-0.905,1.334-0.905,2.188s0.347,1.627,0.905,2.188
	c0.561,0.559,1.333,0.904,2.188,0.904s1.627-0.347,2.188-0.904c0.56-0.562,0.904-1.334,0.904-2.188S32.763,2.982,32.204,2.42
	L32.204,2.42z M30.017-4.438c-0.552,0-1,0.447-1,1c0,0.553,0.448,1,1,1s0.999-0.447,0.999-1C31.016-3.991,30.569-4.438,30.017-4.438
	L30.017-4.438z M31.553-4.975c-0.394-0.393-0.937-0.637-1.536-0.637c-0.599,0-1.143,0.244-1.537,0.637
	c-0.393,0.395-0.637,0.938-0.637,1.537s0.244,1.143,0.637,1.537c0.395,0.393,0.938,0.637,1.537,0.637c0.6,0,1.144-0.244,1.536-0.637
	c0.394-0.395,0.637-0.938,0.637-1.537S31.947-4.581,31.553-4.975z"/>
</svg>
