<?xml version="1.0" encoding="utf-8"?>
<!-- Generator: Adobe Illustrator 16.2.0, SVG Export Plug-In . SVG Version: 6.00 Build 0)  -->
<!DOCTYPE svg PUBLIC "-//W3C//DTD SVG 1.1//EN" "http://www.w3.org/Graphics/SVG/1.1/DTD/svg11.dtd">
<svg version="1.1" id="Layer_1" xmlns="http://www.w3.org/2000/svg" xmlns:xlink="http://www.w3.org/1999/xlink" x="0px" y="0px"
	 width="28.521px" height="28.572px" viewBox="0 0 28.521 28.572" enable-background="new 0 0 28.521 28.572" xml:space="preserve">
<path fill="#FFFFFF" d="M5.184,13.668h18.092h0.311L19.82,9.65l-5.485-5.857L8.848,9.65l-3.766,4.018H5.184L5.184,13.668z
	 M13.942,18.646v5.432h-2.529v-5.432H13.942L13.942,18.646z M17.545,18.646v5.432h-2.528v-5.432H17.545L17.545,18.646z
	 M22.367,2.344v5.072l-0.811-0.865l-2.324-2.479V2.344h-0.824V0.578h4.848v1.766H22.367L22.367,2.344z M24.158,16.707V27.69v0.882
	h-0.883H5.184H4.302V27.69v-9.207h2.847v7.481h14.165v-9.26H14.26H8.981H7.148H4.302h-0.78H1.478l-0.905-2.097l6.392-6.822
	l6.392-6.822L14.261,0l0.904,0.965l6.392,6.822l6.393,6.822l-0.906,2.098H24.158z"/>
</svg>
