<?xml version="1.0" encoding="utf-8"?>
<!-- Generator: Adobe Illustrator 16.2.0, SVG Export Plug-In . SVG Version: 6.00 Build 0)  -->
<!DOCTYPE svg PUBLIC "-//W3C//DTD SVG 1.1//EN" "http://www.w3.org/Graphics/SVG/1.1/DTD/svg11.dtd">
<svg version="1.1" id="Layer_1" xmlns="http://www.w3.org/2000/svg" xmlns:xlink="http://www.w3.org/1999/xlink" x="0px" y="0px"
	 width="33.49px" height="33.507px" viewBox="0 -3.243 33.49 33.507" enable-background="new 0 -3.243 33.49 33.507"
	 xml:space="preserve">
<path fill="#010101" d="M28.935,15.58h3.146c1.181,0,1.392,0.301,1.405,0.971c0.012,0.518,0.027,1.094-0.189,1.338
	c-0.436,0.488-1.411,0.406-2.252-0.354c-0.523-0.474-1.47-0.535-2.107-0.517v8.146c0,1.912-1.564,3.477-3.478,3.477H8.077
	c-1.912,0-3.477-1.563-3.477-3.477V17.02c-0.639-0.022-1.604,0.033-2.136,0.515c-0.841,0.76-1.817,0.842-2.252,0.354
	c-0.217-0.244-0.241-0.822-0.19-1.338c0.079-0.783,0.313-0.971,1.544-0.971H4.6h0.768H28.14L28.935,15.58L28.935,15.58z
	 M20.716,4.666c1.079-0.681,0.752-1.396,0.41-2.144c-0.57-1.249-1.161-2.544-0.018-4.144l1.806,1.283
	c-0.403,0.563-0.083,1.266,0.226,1.94c0.752,1.648,1.473,3.228-1.242,4.938L20.716,4.666L20.716,4.666z M14.953,4.666
	c1.078-0.681,0.751-1.396,0.41-2.144c-0.571-1.249-1.162-2.544-0.016-4.144l1.805,1.283c-0.404,0.563-0.084,1.266,0.225,1.94
	c0.753,1.648,1.474,3.228-1.242,4.938L14.953,4.666L14.953,4.666z M8.837,4.666c1.078-0.681,0.752-1.396,0.41-2.144
	C8.676,1.274,8.085-0.021,9.23-1.621l1.805,1.283c-0.403,0.563-0.083,1.266,0.225,1.94c0.753,1.648,1.474,3.228-1.242,4.938
	L8.837,4.666L8.837,4.666z M6.299,17.991v5.773c0,0.438,0.354,0.793,0.792,0.793s0.791-0.354,0.791-0.793v-5.773
	c0-0.438-0.354-0.79-0.791-0.79S6.299,17.555,6.299,17.991L6.299,17.991z M8.077,10.936h7.384l-0.487-1.947
	c-0.129-0.521,0.44-0.977,0.978-0.977h1.355c0.537,0,1.107,0.457,0.978,0.977l-0.486,1.947h7.66c1.767,0,3.233,1.334,3.449,3.043
	H4.628C4.844,12.27,6.313,10.936,8.077,10.936z"/>
</svg>
