<?xml version="1.0" encoding="utf-8"?>
<!-- Generator: Adobe Illustrator 16.2.0, SVG Export Plug-In . SVG Version: 6.00 Build 0)  -->
<!DOCTYPE svg PUBLIC "-//W3C//DTD SVG 1.1//EN" "http://www.w3.org/Graphics/SVG/1.1/DTD/svg11.dtd">
<svg version="1.1" id="Layer_1" xmlns="http://www.w3.org/2000/svg" xmlns:xlink="http://www.w3.org/1999/xlink" x="0px" y="0px"
	 width="58.428px" height="58.382px" viewBox="0 -12.284 58.428 58.382" enable-background="new 0 -12.284 58.428 58.382"
	 xml:space="preserve">
<g>
	<g>
		<path fill="#030303" d="M48.777,46.098V0h9.65v44.728v1.37H48.777L48.777,46.098z M51.52,43.359h4.169V2.74H51.52V43.359
			L51.52,43.359z"/>
	</g>
	<g>
		<path fill="#030303" d="M36.584,46.097V9.216h9.647v35.513v1.368H36.584L36.584,46.097z M39.323,43.359h4.17V11.952h-4.17V43.359
			L39.323,43.359z"/>
	</g>
	<g>
		<path fill="#030303" d="M24.389,46.098V18.699h9.65v26.027v1.37L24.389,46.098L24.389,46.098z M27.128,43.359H31.3l-0.003-21.921
			h-4.169V43.359L27.128,43.359z"/>
	</g>
	<g>
		<path fill="#030303" d="M12.195,46.097v-18.32h9.648v16.951v1.368L12.195,46.097L12.195,46.097z M14.935,43.359h4.17V30.515h-4.17
			V43.359L14.935,43.359z"/>
	</g>
	<g>
		<path fill="#030303" d="M0,46.098V33.602H9.65v11.126v1.37H0L0,46.098z M2.74,43.359h4.171v-7.018H2.74V43.359L2.74,43.359z"/>
	</g>
	<rect x="25.869" y="20.254" fill="#030303" width="7.061" height="24.475"/>
	<rect x="13.089" y="29.535" fill="#030303" width="7.061" height="15.192"/>
	<rect x="1.221" y="35.317" fill="#030303" width="7.062" height="9.411"/>
</g>
</svg>
