<?xml version="1.0" encoding="utf-8"?>
<!-- Generator: Adobe Illustrator 16.2.0, SVG Export Plug-In . SVG Version: 6.00 Build 0)  -->
<!DOCTYPE svg PUBLIC "-//W3C//DTD SVG 1.1//EN" "http://www.w3.org/Graphics/SVG/1.1/DTD/svg11.dtd">
<svg version="1.1" id="Layer_1" xmlns="http://www.w3.org/2000/svg" xmlns:xlink="http://www.w3.org/1999/xlink" x="0px" y="0px"
	 width="31.781px" height="31.781px" viewBox="0 0 31.781 31.781" enable-background="new 0 0 31.781 31.781" xml:space="preserve">
<path fill="#010101" d="M13.422,29.486c0.088,1.281,1.156,2.295,2.459,2.295c1.092,0,2.018-0.709,2.342-1.693L13.422,29.486
	L13.422,29.486z M19.655,27.619c0.561,0.07,1.02,0.586,1.02,1.146l0,0c0,0.561-0.459,0.961-1.02,0.891l-7.391-0.924
	c-0.561-0.07-1.019-0.588-1.019-1.148l0,0c0-0.561,0.458-0.961,1.019-0.891L19.655,27.619L19.655,27.619z M24.699,9.404l3.223-1.859
	l-0.857-1.494L23.84,7.91L24.699,9.404L24.699,9.404z M7.947,7.713L4.724,5.852L3.859,7.346l3.222,1.861L7.947,7.713L7.947,7.713z
	 M11.844,4.531L9.984,1.308L8.49,2.166l1.86,3.223L11.844,4.531L11.844,4.531z M21.518,5.508l1.861-3.223L21.885,1.42l-1.861,3.223
	L21.518,5.508L21.518,5.508z M16.815,3.721V0h-1.73v3.721H16.815L16.815,3.721z M19.655,24.672l-7.391-0.926
	c-0.561-0.07-1.019,0.33-1.019,0.893l0,0c0,0.56,0.458,1.076,1.019,1.146l7.391,0.924c0.561,0.07,1.02-0.33,1.02-0.891l0,0
	C20.672,25.258,20.213,24.742,19.655,24.672L19.655,24.672z M15.99,6.506c-4.038,0-7.312,2.988-7.312,6.672
	c0,3.781,3.916,5.666,4.13,9.443h6.311c0.213-3.77,4.18-5.672,4.18-9.443C23.299,9.494,20.026,6.506,15.99,6.506z"/>
</svg>
