<?xml version="1.0" encoding="utf-8"?>
<!-- Generator: Adobe Illustrator 16.2.0, SVG Export Plug-In . SVG Version: 6.00 Build 0)  -->
<!DOCTYPE svg PUBLIC "-//W3C//DTD SVG 1.1//EN" "http://www.w3.org/Graphics/SVG/1.1/DTD/svg11.dtd">
<svg version="1.1" id="Layer_1" xmlns="http://www.w3.org/2000/svg" xmlns:xlink="http://www.w3.org/1999/xlink" x="0px" y="0px"
	 width="21.478px" height="21.477px" viewBox="0 0 21.478 21.477" enable-background="new 0 0 21.478 21.477" xml:space="preserve">
<path fill-rule="evenodd" clip-rule="evenodd" d="M11.482,12.391c0.153,0.431,0.23,0.883,0.23,1.336
	c0,1.016-0.386,2.031-1.158,2.804l-3.79,3.789c-0.771,0.771-1.788,1.157-2.804,1.157c-1.015,0-2.032-0.385-2.804-1.157l0,0
	C0.386,19.548,0,18.531,0,17.516s0.386-2.032,1.158-2.804l3.789-3.79c0.772-0.771,1.789-1.157,2.804-1.157
	c0.452,0,0.905,0.077,1.336,0.229l-2.534,2.534l-0.584,0.585l-3.205,3.205c-0.329,0.328-0.493,0.762-0.493,1.197
	c0,0.435,0.164,0.869,0.493,1.197l0,0c0.329,0.329,0.763,0.493,1.198,0.493s0.869-0.164,1.198-0.493l3.205-3.205l0.584-0.584
	L11.482,12.391L11.482,12.391z M15.041,6.437c-0.447-0.446-1.179-0.446-1.624,0l-7.52,7.519c-0.447,0.447-0.446,1.179,0,1.625l0,0
	c0.446,0.445,1.178,0.445,1.624,0l7.52-7.52C15.487,7.614,15.487,6.883,15.041,6.437L15.041,6.437L15.041,6.437z M20.319,1.158
	C19.548,0.387,18.53,0,17.515,0c-1.015,0-2.031,0.386-2.803,1.158l-3.79,3.789C10.15,5.719,9.765,6.735,9.765,7.751
	c0,0.452,0.077,0.905,0.229,1.336l2.534-2.534l0.849-0.848l2.94-2.941c0.328-0.328,0.764-0.492,1.197-0.492
	c0.436,0,0.87,0.164,1.198,0.492l0,0c0.329,0.329,0.493,0.764,0.493,1.198s-0.164,0.869-0.493,1.197l-2.94,2.94l-0.849,0.85
	l-2.534,2.533c0.432,0.153,0.884,0.23,1.336,0.23c1.016,0,2.033-0.387,2.805-1.158l3.789-3.789c0.771-0.771,1.158-1.789,1.158-2.804
	C21.478,2.946,21.091,1.93,20.319,1.158L20.319,1.158z"/>
</svg>
