<?xml version="1.0" encoding="utf-8"?>
<!-- Generator: Adobe Illustrator 16.2.0, SVG Export Plug-In . SVG Version: 6.00 Build 0)  -->
<!DOCTYPE svg PUBLIC "-//W3C//DTD SVG 1.1//EN" "http://www.w3.org/Graphics/SVG/1.1/DTD/svg11.dtd">
<svg version="1.1" id="Layer_1" xmlns="http://www.w3.org/2000/svg" xmlns:xlink="http://www.w3.org/1999/xlink" x="0px" y="0px"
	 width="30.016px" height="30.006px" viewBox="0 -13.494 30.016 30.006" enable-background="new 0 -13.494 30.016 30.006"
	 xml:space="preserve">
<path fill="#010101" d="M0-4.872h3.366l1.135,9.145l0.713-1.354h9.245v5.385H5.939L4.746,7.486L4.232,8.304H3.487v1.461H1.563V8.304
	H0V-4.872L0-4.872z M26.529,8.304v1.461h1.924V8.304h1.563V-4.872H26.65l-1.135,9.145l-0.714-1.354h-9.245v5.385h8.521l1.193-0.818
	l0.514,0.818H26.529L26.529,8.304z M25.087-6.747l0.666,1.156l-0.951,7.836h-9.245v-8.393l0.609-0.6H25.087L25.087-6.747z
	 M4.93-6.747L4.264-5.591l0.95,7.836h9.245v-8.393l-0.608-0.6H4.93z"/>
</svg>
