<?xml version="1.0" encoding="utf-8"?>
<!-- Generator: Adobe Illustrator 16.2.0, SVG Export Plug-In . SVG Version: 6.00 Build 0)  -->
<!DOCTYPE svg PUBLIC "-//W3C//DTD SVG 1.1//EN" "http://www.w3.org/Graphics/SVG/1.1/DTD/svg11.dtd">
<svg version="1.1" id="Layer_1" xmlns="http://www.w3.org/2000/svg" xmlns:xlink="http://www.w3.org/1999/xlink" x="0px" y="0px"
	 width="26.066px" height="26.045px" viewBox="0 0 26.066 26.045" enable-background="new 0 0 26.066 26.045" xml:space="preserve">
<path fill="#010101" d="M2.076,5.352h2.392V4.633H2.776V3.557h9.079v1.076H9.497v0.719h7.746V4.633h-1.141V3.557h5.885v1.076h-0.992
	v0.719h2.996c0.955,0,1.734,0.779,1.734,1.734v15.209c0,0.953-0.779,1.733-1.734,1.733h-1.349l-0.528,2.017h-2.274v-2.017H5.729
	v2.017H3.453l-0.528-2.017H2.076c-0.954,0-1.734-0.78-1.734-1.733V7.086C0.342,6.131,1.122,5.352,2.076,5.352L2.076,5.352z
	 M10.397,15.994c-0.338,0-0.641,0.155-0.841,0.399H9.112v0.551h0.207h7.587h0.078v-0.551h-0.315
	c-0.199-0.244-0.503-0.399-0.841-0.399h-2.366l0.243-1.154h-1.313l0.269,1.154H10.397L10.397,15.994z M9.891,17.974v2.297H10.7
	v-2.297H9.891L9.891,17.974z M16.914,17.444h0.982c0.368,0,0.434,0.095,0.438,0.306c0.004,0.162,0.008,0.342-0.06,0.418
	c-0.137,0.151-0.44,0.127-0.705-0.11c-0.162-0.146-0.459-0.166-0.658-0.16v2.545c0,0.426-0.246,0.795-0.604,0.973h3.35v1.018h3.011
	v-9.1H3.354v9.1h3.055v-1.018h3.506c-0.357-0.178-0.604-0.547-0.604-0.973v-2.545c-0.199-0.008-0.501,0.01-0.667,0.16
	c-0.263,0.237-0.568,0.264-0.704,0.11c-0.067-0.076-0.075-0.258-0.06-0.418c0.025-0.246,0.098-0.306,0.482-0.306H9.31h0.24h7.116
	H16.914L16.914,17.444z M5.778,3.088H4.805c0.136-0.127,0.334-0.373,0.278-0.682C5.002,1.945,4.344,1.504,4.344,1.504
	s0.025,0.352-0.146,0.523C4.026,2.201,3.77,2.164,3.756,2.523C3.745,2.791,3.854,3,3.909,3.088H3.084
	C1.414,1.363,4.556,1.238,4.178,0c0.86,0.254,1.494,0.713,1.829,1.24C6.502,0.889,7.042,0.557,6.872,0
	c0.77,0.227,1.358,0.617,1.713,1.076C8.94,0.617,9.529,0.227,10.298,0c-0.378,1.238,2.763,1.363,1.094,3.088h-0.825
	C10.622,3,10.731,2.791,10.721,2.523c-0.016-0.359-0.271-0.322-0.442-0.496c-0.171-0.172-0.147-0.523-0.147-0.523
	S9.474,1.945,9.393,2.406C9.338,2.715,9.535,2.961,9.67,3.088H8.588L8.585,3.084L8.581,3.088H7.499
	c0.136-0.127,0.333-0.373,0.279-0.682c-0.082-0.461-0.74-0.902-0.74-0.902s0.025,0.352-0.146,0.523
	C6.719,2.201,6.464,2.164,6.449,2.523C6.439,2.791,6.548,3,6.604,3.088H5.778L5.778,3.088L5.778,3.088z M4.959,6.814v2.617
	c0.574-0.158,0.996-0.684,0.996-1.309S5.533,6.973,4.959,6.814L4.959,6.814z M21.969,6.814v2.617
	c0.574-0.158,0.996-0.684,0.996-1.309S22.543,6.973,21.969,6.814L21.969,6.814z M21.25,9.432V6.814
	c-0.576,0.156-0.999,0.684-0.999,1.309S20.674,9.275,21.25,9.432L21.25,9.432z M17.828,6.814v2.617
	c0.574-0.158,0.996-0.684,0.996-1.309S18.402,6.973,17.828,6.814L17.828,6.814z M17.109,9.432V6.814
	c-0.576,0.156-0.998,0.684-0.998,1.309S16.533,9.275,17.109,9.432L17.109,9.432z M13.521,6.814v2.617
	c0.573-0.158,0.995-0.684,0.995-1.309S14.095,6.973,13.521,6.814L13.521,6.814z M12.802,9.432V6.814
	c-0.575,0.156-0.999,0.684-0.999,1.309S12.227,9.275,12.802,9.432L12.802,9.432z M8.238,6.918l1.779,1.92
	c0.313-0.508,0.266-1.18-0.16-1.639C9.434,6.742,8.767,6.645,8.238,6.918L8.238,6.918z M9.49,9.326l-1.779-1.92
	c-0.316,0.506-0.269,1.18,0.156,1.639C8.293,9.504,8.962,9.602,9.49,9.326L9.49,9.326z M4.24,9.432V6.814
	C3.664,6.971,3.241,7.498,3.241,8.123S3.664,9.275,4.24,9.432L4.24,9.432z M2.784,10.619v1.596h20.514v-1.596H2.784z"/>
</svg>
