<?xml version="1.0" encoding="utf-8"?>
<!-- Generator: Adobe Illustrator 16.2.0, SVG Export Plug-In . SVG Version: 6.00 Build 0)  -->
<!DOCTYPE svg PUBLIC "-//W3C//DTD SVG 1.1//EN" "http://www.w3.org/Graphics/SVG/1.1/DTD/svg11.dtd">
<svg version="1.1" id="Layer_1" xmlns="http://www.w3.org/2000/svg" xmlns:xlink="http://www.w3.org/1999/xlink" x="0px" y="0px"
	 width="22.438px" height="22.447px" viewBox="0 0 22.438 22.447" enable-background="new 0 0 22.438 22.447" xml:space="preserve">
<path fill-rule="evenodd" clip-rule="evenodd" d="M11.219,0c2.121,0,4.041,0.86,5.432,2.25c1.389,1.39,2.248,3.31,2.248,5.431
	c0,2.12-0.859,4.041-2.248,5.43l-5.2,9.337c0,0-4.249-6.762-5.705-9.38C4.38,11.681,3.539,9.779,3.539,7.681
	c0-2.121,0.86-4.041,2.25-5.431S9.098,0,11.219,0L11.219,0z M14.449,4.45c-0.826-0.826-1.969-1.338-3.23-1.338
	S8.814,3.624,7.989,4.45c-0.827,0.826-1.338,1.969-1.338,3.23s0.511,2.403,1.338,3.23c0.826,0.826,1.968,1.338,3.23,1.338
	s2.404-0.512,3.23-1.338c0.826-0.827,1.338-1.969,1.338-3.23S15.275,5.276,14.449,4.45z"/>
</svg>
