<?xml version="1.0" encoding="utf-8"?>
<!-- Generator: Adobe Illustrator 16.2.0, SVG Export Plug-In . SVG Version: 6.00 Build 0)  -->
<!DOCTYPE svg PUBLIC "-//W3C//DTD SVG 1.1//EN" "http://www.w3.org/Graphics/SVG/1.1/DTD/svg11.dtd">
<svg version="1.1" id="Layer_1" xmlns="http://www.w3.org/2000/svg" xmlns:xlink="http://www.w3.org/1999/xlink" x="0px" y="0px"
	 width="21.4px" height="21.401px" viewBox="0 0 21.4 21.401" enable-background="new 0 0 21.4 21.401" xml:space="preserve">
<path fill-rule="evenodd" clip-rule="evenodd" d="M10.7,4.155c3.614,0,6.545,2.931,6.545,6.545c0,3.615-2.931,6.545-6.545,6.545
	s-6.545-2.93-6.545-6.545C4.155,7.086,7.086,4.155,10.7,4.155L10.7,4.155z M3.095,3.173C4.019,4.03,3.514,5.483,4.523,6.43
	c0.256-0.363,0.546-0.711,0.871-1.036C5.717,5.071,6.061,4.784,6.42,4.529C5.855,3.59,4.601,2.778,3.095,3.173L3.095,3.173z
	 M0,10.757c0.785-1.346,2.246-1.658,3.311-1.394c-0.075,0.435-0.114,0.88-0.114,1.336c0,0.46,0.04,0.911,0.116,1.35
	C1.929,12.093,1.259,10.708,0,10.757L0,10.757z M3.174,18.306c0.855-0.923,2.309-0.418,3.256-1.428
	c-0.363-0.256-0.711-0.547-1.036-0.872c-0.322-0.322-0.61-0.665-0.864-1.024C3.59,15.545,2.778,16.8,3.174,18.306L3.174,18.306z
	 M10.756,21.401c-1.345-0.786-1.658-2.247-1.393-3.311c0.434,0.074,0.881,0.113,1.336,0.113c0.46,0,0.911-0.039,1.35-0.115
	C12.094,19.473,10.709,20.143,10.756,21.401L10.756,21.401z M18.307,18.228c-0.924-0.856-0.419-2.31-1.429-3.256
	c-0.257,0.363-0.547,0.711-0.872,1.036c-0.322,0.321-0.666,0.609-1.025,0.864C15.545,17.812,16.8,18.623,18.307,18.228
	L18.307,18.228z M21.4,10.646c-0.785,1.344-2.246,1.658-3.311,1.393c0.075-0.435,0.114-0.881,0.114-1.336
	c0-0.461-0.04-0.912-0.116-1.35C19.473,9.308,20.143,10.692,21.4,10.646L21.4,10.646z M18.228,3.095
	c-0.856,0.924-2.31,0.418-3.257,1.429c0.364,0.256,0.711,0.546,1.037,0.872c0.322,0.322,0.609,0.665,0.863,1.025
	C17.811,5.856,18.623,4.601,18.228,3.095L18.228,3.095z M1.996,7.201l2.09-0.034C3.952,7.386,3.834,7.618,3.734,7.864
	c-0.1,0.248-0.176,0.5-0.229,0.754L1.996,7.201L1.996,7.201z M2.07,14.381l1.455-1.502c0.059,0.249,0.14,0.497,0.244,0.741
	c0.105,0.246,0.229,0.479,0.37,0.696L2.07,14.381L2.07,14.381z M7.201,19.405l-0.034-2.091c0.218,0.135,0.45,0.253,0.697,0.352
	c0.248,0.101,0.501,0.177,0.754,0.229L7.201,19.405L7.201,19.405z M14.381,19.33l-1.502-1.454c0.249-0.06,0.497-0.141,0.741-0.244
	c0.246-0.105,0.479-0.23,0.696-0.371L14.381,19.33L14.381,19.33z M19.404,14.2l-2.09,0.033c0.135-0.218,0.252-0.45,0.352-0.696
	c0.1-0.249,0.176-0.501,0.23-0.754L19.404,14.2L19.404,14.2z M19.33,7.021l-1.455,1.502c-0.059-0.25-0.14-0.498-0.244-0.741
	c-0.104-0.247-0.229-0.479-0.37-0.696L19.33,7.021L19.33,7.021z M14.2,1.996l0.033,2.091c-0.218-0.135-0.45-0.253-0.696-0.352
	c-0.249-0.1-0.501-0.176-0.754-0.23L14.2,1.996L14.2,1.996z M7.02,2.071l1.502,1.454c-0.249,0.06-0.497,0.14-0.74,0.244
	C7.534,3.875,7.302,3.999,7.085,4.14L7.02,2.071L7.02,2.071z M10.645,0c1.345,0.786,1.658,2.247,1.393,3.311
	c-0.434-0.075-0.88-0.114-1.336-0.114c-0.46,0-0.91,0.04-1.35,0.116C9.308,1.929,10.692,1.259,10.645,0L10.645,0z M6.106,9.505
	c1.782-3.336,4.825-3.996,8.622-3.053C11.624,3.89,6.016,5.028,6.106,9.505L6.106,9.505z M9.811,15.874
	c-2.469-0.902-3.584-2.019-4.494-3.096C5.103,13.669,7.756,16.63,9.811,15.874L9.811,15.874z M6.288,13.411
	C5.356,10.954,5.473,9.38,5.693,7.986C4.879,8.407,4.372,12.351,6.288,13.411z"/>
</svg>
