<?xml version="1.0" encoding="utf-8"?>
<!-- Generator: Adobe Illustrator 16.2.0, SVG Export Plug-In . SVG Version: 6.00 Build 0)  -->
<!DOCTYPE svg PUBLIC "-//W3C//DTD SVG 1.1//EN" "http://www.w3.org/Graphics/SVG/1.1/DTD/svg11.dtd">
<svg version="1.1" id="Layer_1" xmlns="http://www.w3.org/2000/svg" xmlns:xlink="http://www.w3.org/1999/xlink" x="0px" y="0px"
	 width="23.058px" height="23.062px" viewBox="0 0 23.058 23.062" enable-background="new 0 0 23.058 23.062" xml:space="preserve">
<path fill-rule="evenodd" clip-rule="evenodd" d="M7.147,12.699c0.588,0.381,1.083,0.893,1.444,1.496
	c0.411,0.686,0.647,1.487,0.647,2.342c0,1.261-0.511,2.402-1.338,3.229s-1.969,1.338-3.23,1.338c-1.262,0-2.403-0.511-3.23-1.338
	c-0.826-0.827-1.338-1.969-1.338-3.229c0-0.854,0.237-1.656,0.648-2.344c0.36-0.602,0.856-1.113,1.445-1.494V4.434
	c0-0.682,0.278-1.301,0.727-1.749S3.99,1.958,4.672,1.958c0.681,0,1.3,0.278,1.749,0.727c0.448,0.448,0.727,1.067,0.727,1.749
	V12.699L7.147,12.699z M19.567,10.187h1.605v0.385h-1.605V10.187L19.567,10.187z M19.567,9.308h1.605v0.386h-1.605V9.308
	L19.567,9.308z M19.567,8.48h1.605v0.385h-1.605V8.48L19.567,8.48z M19.567,6.209h1.605v0.386h-1.605V6.209L19.567,6.209z
	 M19.567,5.331h1.605v0.386h-1.605V5.331L19.567,5.331z M19.567,4.502h1.605v0.386h-1.605V4.502L19.567,4.502z M19.567,11.175h3.388
	v0.627h-3.388V11.175L19.567,11.175z M19.567,7.214h3.388v0.627h-3.388V7.214L19.567,7.214z M19.567,3.347h3.388v0.627h-3.388V3.347
	L19.567,3.347z M16.426,13.858v-3.235c0-0.276-0.23-0.507-0.507-0.507c-0.275,0-0.506,0.23-0.506,0.507v3.234l-0.72,0.387
	c-0.846,0.453-1.374,1.33-1.374,2.293c0,1.436,1.163,2.599,2.599,2.599s2.599-1.163,2.599-2.599c0-0.963-0.527-1.84-1.372-2.293
	L16.426,13.858L16.426,13.858z M18.395,12.699V4.434c0-0.682-0.278-1.301-0.727-1.749s-1.067-0.727-1.749-0.727
	s-1.301,0.278-1.748,0.727c-0.449,0.448-0.728,1.067-0.728,1.749v8.265c-0.589,0.381-1.085,0.893-1.445,1.494
	c-0.411,0.688-0.648,1.489-0.648,2.344c0,1.261,0.512,2.402,1.339,3.229c0.826,0.827,1.969,1.338,3.229,1.338
	c1.262,0,2.403-0.511,3.229-1.338c0.827-0.827,1.338-1.969,1.338-3.229c0-0.854-0.236-1.656-0.646-2.342
	C19.478,13.591,18.982,13.08,18.395,12.699L18.395,12.699z M18.802,14.814c0.301,0.501,0.473,1.09,0.473,1.723
	c0,0.926-0.375,1.766-0.982,2.373s-1.447,0.982-2.374,0.982s-1.767-0.375-2.374-0.982c-0.606-0.607-0.982-1.447-0.982-2.373
	c0-0.633,0.173-1.223,0.473-1.724c0.313-0.522,0.763-0.952,1.299-1.239l0.322-0.172v-0.36V4.434c0-0.347,0.143-0.663,0.371-0.893
	c0.229-0.229,0.546-0.372,0.893-0.372c0.348,0,0.663,0.143,0.893,0.372s0.371,0.546,0.371,0.893v8.608v0.361l0.32,0.172
	C18.04,13.864,18.49,14.293,18.802,14.814L18.802,14.814z M5.179,13.858V4.434c0-0.276-0.231-0.507-0.507-0.507
	s-0.507,0.23-0.507,0.507v9.423l-0.719,0.387c-0.845,0.453-1.374,1.33-1.374,2.293c0,1.436,1.164,2.599,2.599,2.599
	s2.599-1.163,2.599-2.599c0-0.963-0.528-1.84-1.373-2.293L5.179,13.858L5.179,13.858z M7.555,14.814
	c-0.312-0.521-0.762-0.95-1.299-1.238l-0.319-0.172v-0.361V4.434c0-0.347-0.143-0.663-0.372-0.893
	C5.335,3.312,5.019,3.169,4.672,3.169c-0.347,0-0.663,0.143-0.893,0.372C3.55,3.771,3.408,4.087,3.408,4.434v8.607v0.36
	l-0.322,0.172C2.55,13.861,2.1,14.291,1.788,14.813c-0.3,0.501-0.473,1.091-0.473,1.724c0,0.926,0.375,1.766,0.982,2.373
	c0.608,0.607,1.447,0.982,2.374,0.982c0.927,0,1.766-0.375,2.373-0.982c0.607-0.607,0.983-1.447,0.983-2.373
	C8.027,15.904,7.854,15.315,7.555,14.814z"/>
</svg>
