<?xml version="1.0" encoding="utf-8"?>
<!-- Generator: Adobe Illustrator 16.2.0, SVG Export Plug-In . SVG Version: 6.00 Build 0)  -->
<!DOCTYPE svg PUBLIC "-//W3C//DTD SVG 1.1//EN" "http://www.w3.org/Graphics/SVG/1.1/DTD/svg11.dtd">
<svg version="1.1" id="Layer_1" xmlns="http://www.w3.org/2000/svg" xmlns:xlink="http://www.w3.org/1999/xlink" x="0px" y="0px"
	 width="18.417px" height="18.424px" viewBox="-0.299 0 18.417 18.424" enable-background="new -0.299 0 18.417 18.424"
	 xml:space="preserve">
<path d="M7.866,3.01c2.054-0.233,4.01,0.389,5.51,1.583c1.5,1.195,2.545,2.962,2.778,5.019c0.218,1.917-0.31,3.75-1.354,5.206
	l0.474,3.607h-1.062l-1.338-1.74c-0.963,0.646-2.091,1.076-3.323,1.217l-0.037,0.004H9.512C7.77,18.092,6.1,17.667,4.721,16.797
	l-1.248,1.627H2.413l0.434-3.305c-0.849-1.063-1.417-2.37-1.581-3.821L1.26,11.26v-0.002C0.82,7.188,3.798,3.471,7.866,3.01
	L7.866,3.01z M8.917,9.184c-0.216,0-0.418,0.052-0.597,0.144c-0.624-1.128-1.306-2.26-2.063-3.4c-0.1,0.058-0.198,0.117-0.3,0.175
	c0.61,1.191,1.275,2.362,1.984,3.515c-0.209,0.232-0.336,0.54-0.336,0.876c0,0.723,0.587,1.31,1.311,1.31
	c0.725,0,1.311-0.587,1.311-1.31c0-0.091-0.008-0.179-0.025-0.263c0.805-0.712,1.535-1.533,2.172-2.5
	c-0.207-0.196-0.413-0.393-0.619-0.589c-0.846,0.629-1.595,1.359-2.265,2.17C9.317,9.231,9.123,9.184,8.917,9.184L8.917,9.184z
	 M16.559,0.068l-1.043,0.744c-1.504-0.769-3.394-0.45-4.552,0.88c-0.011,0.012-0.021,0.023-0.03,0.036l5.676,4.946
	c0.011-0.012,0.021-0.023,0.031-0.035c1.252-1.436,1.219-3.552,0-4.947l0.491-1.078L16.559,0.068L16.559,0.068z M0.825,0.415
	L1.21,1.444C-0.133,2.682-0.41,4.748,0.641,6.31C0.65,6.323,0.659,6.335,0.668,6.348l6.246-4.202
	C6.907,2.133,6.898,2.121,6.889,2.107C5.879,0.606,3.977,0.065,2.364,0.713L1.5,0L0.825,0.415L0.825,0.415z M12.417,5.797
	C11.225,4.848,9.67,4.354,8.036,4.54C6.404,4.725,5,5.555,4.051,6.747c-0.948,1.192-1.442,2.747-1.258,4.381v0.002
	C2.979,12.761,3.809,14.164,5,15.112c1.192,0.949,2.747,1.443,4.382,1.258h0.002c1.632-0.186,3.034-1.016,3.981-2.207
	c0.949-1.191,1.443-2.746,1.258-4.381C14.439,8.149,13.609,6.747,12.417,5.797z"/>
</svg>
