<?xml version="1.0" encoding="utf-8"?>
<!-- Generator: Adobe Illustrator 16.2.0, SVG Export Plug-In . SVG Version: 6.00 Build 0)  -->
<!DOCTYPE svg PUBLIC "-//W3C//DTD SVG 1.1//EN" "http://www.w3.org/Graphics/SVG/1.1/DTD/svg11.dtd">
<svg version="1.1" id="Layer_1" xmlns="http://www.w3.org/2000/svg" xmlns:xlink="http://www.w3.org/1999/xlink" x="0px" y="0px"
	 width="26.384px" height="26.434px" viewBox="0 0 26.384 26.434" enable-background="new 0 0 26.384 26.434" xml:space="preserve">
<path fill-rule="evenodd" clip-rule="evenodd" fill="#010101" d="M0.971,3.393l9.775-1.508L22.963,0l2.45,0.779v22.012l-2.45,0.389
	v-0.063L0.971,21.896v-1.898l9.855,0.332l12.137,0.414v-1.291l-12.14-0.268l-9.853-0.219v-7.811V3.393L0.971,3.393z M5.067,25.479
	c0,0.318,0,0.637,0,0.955c4.795,0,9.589,0,14.383,0c0-0.318,0-0.637,0-0.955c-0.807-0.135-1.589-0.244-2.351-0.334v-1.863
	l-4.479-0.248v1.822C9.867,24.826,7.396,25.08,5.067,25.479L5.067,25.479z M1.908,4.68l0.004,6.352l0.003,6.383l8.95,0.039
	l10.856,0.053L21.671,1.951L10.803,3.453L1.908,4.68z"/>
</svg>
