<?xml version="1.0" encoding="utf-8"?>
<!-- Generator: Adobe Illustrator 16.2.0, SVG Export Plug-In . SVG Version: 6.00 Build 0)  -->
<!DOCTYPE svg PUBLIC "-//W3C//DTD SVG 1.1//EN" "http://www.w3.org/Graphics/SVG/1.1/DTD/svg11.dtd">
<svg version="1.1" id="Layer_1" xmlns="http://www.w3.org/2000/svg" xmlns:xlink="http://www.w3.org/1999/xlink" x="0px" y="0px"
	 width="28.348px" height="28.351px" viewBox="283.245 406.49 28.348 28.351" enable-background="new 283.245 406.49 28.348 28.351"
	 xml:space="preserve">
<path fill="#010101" d="M299.201,406.604l0.067,0.009l0.064,0.01c1.569,0.211,3.059,0.682,4.422,1.363l0.056,0.028l0.078,0.039
	c1.901,0.974,3.519,2.347,4.771,3.984c1.259,1.635,2.165,3.555,2.613,5.643l0.021,0.09l0.01,0.05
	c0.431,2.092,0.394,4.313-0.197,6.514c-1.013,3.781-3.462,6.793-6.604,8.607c-2.619,1.512-5.719,2.188-8.868,1.785l-0.07-0.01
	l-0.063-0.008c-3.147-0.426-5.966-1.883-8.105-4.02c-2.564-2.566-4.15-6.109-4.15-10.022c0-2.279,0.537-4.432,1.492-6.34
	l0.026-0.053l0.043-0.084c0.974-1.9,2.348-3.519,3.986-4.771c1.635-1.256,3.552-2.164,5.639-2.611l0.09-0.018l0.049-0.012
	C296.066,406.472,297.628,406.403,299.201,406.604L299.201,406.604z M290.766,414.063l0.294-0.293l-0.931-0.932l-0.294,0.293
	L290.766,414.063L290.766,414.063z M304.021,414.013l0.294,0.293l0.933-0.93l-0.294-0.295L304.021,414.013L304.021,414.013z
	 M304.073,427.267l-0.295,0.295l0.933,0.932l0.294-0.293L304.073,427.267L304.073,427.267z M290.818,427.32l-0.294-0.295
	l-0.932,0.932l0.294,0.295L290.818,427.32L290.818,427.32z M297.713,428.503h-0.93v2.943h0.93V428.503L297.713,428.503z
	 M297.713,410.095h-0.93v2.943h0.93V410.095L297.713,410.095z M304.979,420.306v0.931h2.944v-0.931H304.979L304.979,420.306z
	 M286.572,420.306v0.931h2.944v-0.931H286.572L286.572,420.306z M297.53,418.438c-0.221,0-0.435,0.033-0.635,0.095
	c-1.164-2.371-2.582-4.636-4.203-6.816c-0.365,0.201-0.732,0.404-1.1,0.605c1.13,2.524,2.514,4.875,4.135,7.063
	c-0.246,0.354-0.39,0.785-0.39,1.248c0,1.211,0.981,2.192,2.191,2.192c1.211,0,2.192-0.98,2.192-2.192
	c0-0.149-0.015-0.297-0.044-0.438c1.347-1.191,2.57-2.564,3.636-4.181c-0.346-0.328-0.69-0.657-1.037-0.985
	c-1.414,1.053-2.668,2.272-3.789,3.633C298.199,418.519,297.874,418.438,297.53,418.438L297.53,418.438z M308.699,422.023
	L308.699,422.023c0.053-0.445,0.079-0.899,0.079-1.356c0-0.828-0.088-1.635-0.256-2.412l-0.016-0.072l-0.011-0.039
	c-0.254-1.112-0.674-2.178-1.239-3.157c-0.248-0.431-0.523-0.845-0.826-1.238c-0.303-0.393-0.63-0.766-0.979-1.115
	c-0.802-0.801-1.722-1.481-2.73-2.016l-0.038-0.021l-0.061-0.03c-0.708-0.363-1.465-0.658-2.266-0.873
	c-0.472-0.127-0.943-0.222-1.417-0.285l-0.018-0.002l-0.079-0.011c-0.468-0.061-0.944-0.09-1.427-0.09
	c-0.828,0-1.636,0.088-2.412,0.256l-0.07,0.017l-0.04,0.01c-1.113,0.254-2.179,0.674-3.159,1.24
	c-0.419,0.242-0.822,0.512-1.208,0.805l-0.008,0.006l-0.01,0.009l-0.022,0.018c-0.389,0.299-0.758,0.623-1.104,0.971
	c-0.77,0.769-1.428,1.646-1.952,2.609l-0.01,0.02l-0.04,0.074l-0.043,0.082l-0.005,0.008c-0.337,0.65-0.616,1.345-0.827,2.072
	h-0.003c-0.292,1.006-0.448,2.068-0.448,3.17c0,3.136,1.272,5.978,3.328,8.033c1.076,1.076,2.367,1.938,3.804,2.514v-0.002
	c0.416,0.166,0.848,0.313,1.29,0.43c0.465,0.123,0.93,0.219,1.396,0.281l0.039,0.006l0.015,0.002
	c0.412,0.057,0.831,0.088,1.256,0.096v0.004c2.107,0.045,4.149-0.502,5.917-1.521c2.52-1.455,4.48-3.869,5.294-6.9
	C308.533,423.08,308.636,422.55,308.699,422.023z"/>
</svg>
