<?xml version="1.0" encoding="utf-8"?>
<!-- Generator: Adobe Illustrator 16.2.0, SVG Export Plug-In . SVG Version: 6.00 Build 0)  -->
<!DOCTYPE svg PUBLIC "-//W3C//DTD SVG 1.1//EN" "http://www.w3.org/Graphics/SVG/1.1/DTD/svg11.dtd">
<svg version="1.1" id="Layer_1" xmlns="http://www.w3.org/2000/svg" xmlns:xlink="http://www.w3.org/1999/xlink" x="0px" y="0px"
	 width="27.897px" height="27.904px" viewBox="0 0 27.897 27.904" enable-background="new 0 0 27.897 27.904" xml:space="preserve">
<path fill="#010101" d="M4.32-0.001h19.257c0.975,0,1.768,0.797,1.768,1.771v3.707H2.551V1.77C2.551,0.796,3.346-0.001,4.32-0.001
	L4.32-0.001z M14.034,8.546c3.419,0,6.367,2.021,7.714,4.935H19.1h-0.088c-1.11-1.549-2.928-2.56-4.979-2.56
	c-3.38,0-6.121,2.74-6.121,6.121c0,3.379,2.741,6.119,6.121,6.119c2.061,0,3.885-1.018,4.994-2.58H19.1h2.658
	c-1.344,2.924-4.297,4.955-7.725,4.955c-4.691,0-8.495-3.805-8.495-8.494C5.539,12.352,9.343,8.546,14.034,8.546L14.034,8.546z
	 M20.77,1.073c-0.989,0-1.791,0.803-1.791,1.791s0.802,1.791,1.791,1.791c0.988,0,1.789-0.803,1.789-1.791S21.758,1.073,20.77,1.073
	L20.77,1.073z M14.244,2.227c-0.448,0-0.812,0.362-0.812,0.811s0.363,0.812,0.812,0.812c0.447,0,0.812-0.363,0.812-0.812
	S14.691,2.227,14.244,2.227L14.244,2.227z M11.667,2.227c-0.448,0-0.811,0.362-0.811,0.811s0.363,0.812,0.811,0.812
	c0.447,0,0.81-0.363,0.81-0.812S12.114,2.227,11.667,2.227L11.667,2.227z M9.018,2.227c-0.448,0-0.811,0.362-0.811,0.811
	s0.364,0.811,0.811,0.811c0.448,0,0.811-0.363,0.811-0.812S9.467,2.227,9.018,2.227L9.018,2.227z M6.441,2.227
	c-0.448,0-0.811,0.362-0.811,0.811s0.363,0.811,0.811,0.811c0.448,0,0.811-0.363,0.811-0.812S6.889,2.227,6.441,2.227L6.441,2.227z
	 M19.1,14.359c0.345,1.781,0.322,3.562,0,5.343c1.293,0,2.588,0,3.882,0c0.431-1.838,0.403-3.615,0-5.343
	C21.688,14.359,20.393,14.359,19.1,14.359L19.1,14.359z M13.327,22.184c-1.481-1.24-2.47-3.461-2.47-5.994
	c0-1.383,0.295-2.674,0.805-3.763c-1.672,0.861-2.816,2.605-2.816,4.615C8.846,19.667,10.797,21.837,13.327,22.184L13.327,22.184z
	 M25.344,6.753H2.551v19.38c0,0.977,0.795,1.771,1.769,1.771h19.257c0.975,0,1.77-0.795,1.77-1.771V6.753H25.344z"/>
</svg>
