<?xml version="1.0" encoding="utf-8"?>
<!-- Generator: Adobe Illustrator 16.2.0, SVG Export Plug-In . SVG Version: 6.00 Build 0)  -->
<!DOCTYPE svg PUBLIC "-//W3C//DTD SVG 1.1//EN" "http://www.w3.org/Graphics/SVG/1.1/DTD/svg11.dtd">
<svg version="1.1" id="Layer_1" xmlns="http://www.w3.org/2000/svg" xmlns:xlink="http://www.w3.org/1999/xlink" x="0px" y="0px"
	 width="28.66px" height="28.641px" viewBox="288.314 407.19 28.66 28.641" enable-background="new 288.314 407.19 28.66 28.641"
	 xml:space="preserve">
<path fill="#010101" d="M302.644,409.981L302.644,409.981l-0.002-0.007c-1.895,0-3.609,0.699-4.847,1.828
	c-1.2,1.097-1.944,2.599-1.944,4.248h0.006l0,0h-0.006c0,1.715,1.016,3.144,2.036,4.58c0.992,1.396,1.988,2.796,2.402,4.603h0.91
	l-1.623-6.946v-1.49h2.422h1.305h2.422v1.49l-1.625,6.946h0.844c0.418-1.807,1.43-3.211,2.434-4.61
	c1.033-1.438,2.061-2.865,2.061-4.572h-0.006c0-1.651-0.742-3.156-1.938-4.248c-1.238-1.129-2.951-1.828-4.85-1.828V409.981
	L302.644,409.981z M304.544,418.288l-1.143,6.946h-1.506l-1.141-6.946h1.242h1.305H304.544L304.544,418.288z M300.784,434.808
	c1.236,0,2.475,0,3.713,0c0.264,0.377,0.219,0.711,0,1.023c-1.238,0-2.477,0-3.713,0C300.63,435.501,300.638,435.16,300.784,434.808
	L300.784,434.808z M298.163,431.888c2.916,0,5.832,0,8.748,0c0.623,0.887,0.514,1.678,0,2.414c-2.916,0-5.832,0-8.748,0
	C297.801,433.523,297.82,432.716,298.163,431.888L298.163,431.888z M298.163,428.89c2.916,0,5.832,0,8.748,0
	c0.623,0.887,0.514,1.678,0,2.414c-2.916,0-5.832,0-8.748,0C297.801,430.525,297.82,429.718,298.163,428.89L298.163,428.89z
	 M302.644,407.19v-0.007l0,0V407.19c2.623,0,5.002,0.975,6.727,2.549c1.766,1.608,2.855,3.842,2.855,6.313h-0.006
	c0,2.605-1.287,4.396-2.582,6.202c-0.998,1.389-2.002,2.787-2.098,4.449l-0.074,1.314h-1.318h-7.066h-1.318l-0.074-1.314
	c-0.094-1.668-1.088-3.064-2.073-4.453c-1.278-1.801-2.55-3.588-2.549-6.198h-0.006l0,0h0.006c0-2.475,1.09-4.705,2.852-6.313
	C297.642,408.165,300.021,407.19,302.644,407.19z"/>
</svg>
